<svg xmlns="http://www.w3.org/2000/svg" viewBox="0 0 601.54 421.46">
  <defs>
    <style>
      .a {
        fill: #5d79af;
      }

      .b {
        fill: #f8e8dd;
      }

      .c, .h, .i, .k, .l, .s {
        fill: none;
        stroke-miterlimit: 10;
      }

      .c {
        stroke: #f1a24c;
        stroke-width: 2px;
      }

      .d {
        fill: #a3a357;
      }

      .e {
        fill: #f1a24c;
      }

      .f {
        fill: #b2b661;
      }

      .g {
        fill: #898743;
      }

      .h {
        stroke: #728bcb;
      }

      .i {
        stroke: #b2b661;
        stroke-dasharray: 4;
      }

      .j {
        fill: #ffc593;
      }

      .k {
        stroke: #a3a357;
      }

      .l {
        stroke: #812c53;
      }

      .m {
        fill: #728bcb;
      }

      .n {
        fill: #4c1e3c;
      }

      .o {
        fill: #812c53;
      }

      .p {
        fill: #602945;
      }

      .q {
        fill: #fff;
      }

      .r {
        fill: #efd6c5;
      }

      .s {
        stroke: #d6d6d6;
      }

      .t {
        fill: #ff6545;
      }

      .u {
        fill: #ff6447;
      }

      .v {
        fill: #db8835;
      }

      .w {
        fill: #efebff;
      }

      .x {
        fill: #eda36b;
      }
    </style>
  </defs>
  <g>
    <polygon class="a" points="263.79 392.89 266.29 392.59 266.39 393.09 263.94 393.97 263.79 392.89"/>
    <path class="b" d="M604.09,398.32a254.72,254.72,0,0,0,9-67.22c0-140.55-113.93-254.48-254.47-254.48S104.13,190.55,104.13,331.1a254.72,254.72,0,0,0,9,67.22Z" transform="translate(-74.23 -39.27)"/>
    <line class="c" y1="359.05" x2="583.91" y2="359.05"/>
    <g>
      <path class="d" d="M132.39,365.64a34.44,34.44,0,0,0-8.68,5c3.15-4.94,6.65-10.89,6.65-10.89l19.61,3C147.41,358.93,133,351,126.2,357a34.84,34.84,0,0,0-6.18,8c-.77-5.7-2-11.67-4-14.78-4.58-7-23.55-11.25-23.55-11.25,1.6,3.31,17.8,12.9,17.8,12.9L113,363.37a29.94,29.94,0,0,0-5-6.05c-6.82-6-21.21,1.92-23.77,5.76l19.61-3s3.5,6,6.66,10.89a34.56,34.56,0,0,0-8.68-5c-7.68-2.67-15.67,12.78-15.67,12.78l14.17-9.27s8.28,6.37,13,9l-.33.84a10,10,0,0,0,1.65-.18,5.14,5.14,0,0,0,1.22.4,5,5,0,0,0,3-.23,10.5,10.5,0,0,0,2.28.32s-.1-.23-.27-.65l.27,0s0-.37,0-1a146.31,146.31,0,0,0,12.72-8.79l14.17,9.27S140.06,363,132.39,365.64Z" transform="translate(-74.23 -39.27)"/>
      <path class="e" d="M132,376.29H102.32a29.48,29.48,0,0,0,6.39,21.35h16.87A29.52,29.52,0,0,0,132,376.29Z" transform="translate(-74.23 -39.27)"/>
    </g>
    <rect class="f" x="473.55" y="55.38" width="63.34" height="9.95"/>
    <g>
      <polygon class="f" points="331.71 399.16 364.41 412.01 421.31 401.63 390.2 388.27 331.71 399.16"/>
      <path class="d" d="M438.63,451.28v9.45l56.91-11.87s2.51-3.08,0-8Z" transform="translate(-74.23 -39.27)"/>
      <polygon class="b" points="334.2 400.14 334.2 409.01 364.41 421.46 364.41 412.01 334.2 400.14"/>
      <polygon class="g" points="331.71 399.16 331.71 400.14 363.51 412.74 363.51 419.42 331.98 406.97 331.98 408.25 364.41 421.46 364.41 413.1 364.41 412.01 364.41 411.78 331.71 399.16"/>
    </g>
    <circle class="h" cx="296.86" cy="87.53" r="15.47" transform="translate(69.66 317.31) rotate(-76.81)"/>
    <circle class="i" cx="463.24" cy="87.53" r="18.63" transform="translate(-0.44 313.92) rotate(-45)"/>
    <circle class="j" cx="579.45" cy="126.55" r="8.36" transform="translate(287.71 639.07) rotate(-80.81)"/>
    <path class="e" d="M399.66,63c-.2-.51-.41-1-.65-1.52l5.14-10.09-1.75-1.54L398,46l-1.75-1.55-8.34,5.67a23.15,23.15,0,0,0-3-1.26l-2.45-9.56H371.9l-2.44,9.54a24.91,24.91,0,0,0-3.1,1.28L358,44.42,356.27,46l-4.39,3.87-1.75,1.54,5.14,10.09c-.23.49-.45,1-.65,1.51l-9.7,2.48V76l9,2.31a21.86,21.86,0,0,0,.76,2.24l-5.21,10.21,1.76,1.55,4.38,3.86,1.76,1.55L365,92.54a23,23,0,0,0,4.08,1.9l2.16,8.42h10.52l2-7.94a24.78,24.78,0,0,0,4.85-2l7,4.76,1.76-1.55,4.38-3.86,1.76-1.55L399,81.94a23.9,23.9,0,0,0,1.36-3.66L409.31,76V65.46ZM389,71.7a11.23,11.23,0,1,1-11.23-11.23A11.23,11.23,0,0,1,389,71.7Z" transform="translate(-74.23 -39.27)"/>
    <g>
      <circle class="i" cx="67.42" cy="131.23" r="29.16"/>
      <path class="k" d="M154.88,165.76c-.12-.3-.24-.6-.38-.89l3-5.92-1-.9-2.58-2.27-1-.91L148,158.2a14,14,0,0,0-1.78-.75l-1.44-5.6H138.6l-1.44,5.59a13.19,13.19,0,0,0-1.82.76l-4.89-3.33-1,.91-2.57,2.27-1,.9,3,5.92a8.81,8.81,0,0,0-.38.89l-5.7,1.45v6.18l5.28,1.35q.19.67.45,1.32l-3.06,6,1,.91,2.58,2.27,1,.9,4.45-3a14.87,14.87,0,0,0,2.39,1.12l1.27,4.94h6.18l1.19-4.67a14.17,14.17,0,0,0,2.85-1.15l4.1,2.79,1-.9L156.1,183l1-.91-2.63-5.17a14.17,14.17,0,0,0,.8-2.15l5.24-1.34v-6.18Zm-6.26,5.11a6.59,6.59,0,1,1-6.59-6.59A6.59,6.59,0,0,1,148.62,170.87Z" transform="translate(-74.23 -39.27)"/>
    </g>
    <path class="j" d="M279.15,440.12l49.08-9.88s4.84,3.16,3.1,9.81l-58.6,12.32Z" transform="translate(-74.23 -39.27)"/>
    <path class="e" d="M328.23,430.24l10,1.59.36,1.62-7.22,6.6S333,433.84,328.23,430.24Z" transform="translate(-74.23 -39.27)"/>
    <path class="f" d="M282.47,450.32l-15.34,3.2s-5.27-2.53-3-10.07l15.32-3.4A10.43,10.43,0,0,1,282.47,450.32Z" transform="translate(-74.23 -39.27)"/>
    <path class="g" d="M267.13,453.52s-5.27-2.53-3-10.07A9.85,9.85,0,0,1,267.13,453.52Z" transform="translate(-74.23 -39.27)"/>
    <g>
      <circle class="l" cx="204.08" cy="81.27" r="22.15" transform="translate(-71.92 128.84) rotate(-45)"/>
      <ellipse class="l" cx="129.86" cy="42" rx="7.26" ry="22.15"/>
      <path class="l" d="M184.17,71.57s19.08,7.73,39.83,0" transform="translate(-74.23 -39.27)"/>
      <path class="l" d="M224,91.39s-19.08-7.73-39.83,0" transform="translate(-74.23 -39.27)"/>
      <line class="l" x1="107.71" y1="42" x2="152" y2="42"/>
    </g>
    <path class="m" d="M115.52,266.35a7.86,7.86,0,0,1-4.47,2.29v.79a2.38,2.38,0,0,1-2.38,2.38h0a2.37,2.37,0,0,1-2.37-2.38v-.69a13.31,13.31,0,0,1-5.24-1.62,1.6,1.6,0,0,1-.64-1.95l.27-.71a1.6,1.6,0,0,1,2.29-.79h0a11.1,11.1,0,0,0,2.33,1A9.73,9.73,0,0,0,108,265a5,5,0,0,0,2.8-.74,2.08,2.08,0,0,0,.48-3.33,5.28,5.28,0,0,0-1.65-1c-.64-.25-1.47-.53-2.49-.82a17.2,17.2,0,0,1-3.59-1.44,7,7,0,0,1-2.47-2.26,6.24,6.24,0,0,1-1-3.56,5.91,5.91,0,0,1,.73-2.92,6.34,6.34,0,0,1,2.11-2.24,8.75,8.75,0,0,1,3.34-1.26v-1.49a2.38,2.38,0,0,1,2.37-2.38h0a2.39,2.39,0,0,1,2.38,2.38v1.51a10.72,10.72,0,0,1,3,1c.18.09.35.19.5.28a1.79,1.79,0,0,1,.67,2.31h0a1.81,1.81,0,0,1-2.55.78,9.64,9.64,0,0,0-1.36-.71,6.39,6.39,0,0,0-2.18-.39,5.15,5.15,0,0,0-2.84.74,2.39,2.39,0,0,0-1.15,2.13,2.52,2.52,0,0,0,1.3,2.28,10.61,10.61,0,0,0,3.25,1.23,12.68,12.68,0,0,1,5.41,2.55,5.6,5.6,0,0,1,2.09,4.43A6.1,6.1,0,0,1,115.52,266.35Z" transform="translate(-74.23 -39.27)"/>
  </g>
  <g>
    <g>
      <path class="n" d="M615.87,184.6,652,326.25a2.63,2.63,0,0,0,3.57,1.78h0a2.63,2.63,0,0,0,1.53-3.08L621,184.06Z" transform="translate(-74.23 -39.27)"/>
      <path class="o" d="M583.69,149.46l18.58,3a25.51,25.51,0,0,1,21.11,20.85h0a25.49,25.49,0,0,1-10.57,25.28L592.13,213Z" transform="translate(-74.23 -39.27)"/>
      <path class="p" d="M589,214a17.71,17.71,0,0,1-11.5-1.58c-8.29-4-15.43-13.74-18.06-26.17-2.51-11.88-.29-23.2,5.12-30.28a18.26,18.26,0,0,1,10.65-7.08c12.53-2.65,25.76,9.77,29.58,27.75S601.49,211.32,589,214Z" transform="translate(-74.23 -39.27)"/>
      <path class="o" d="M613.74,160l12.61.43a10.46,10.46,0,0,1,10.08,9.65h0a10.46,10.46,0,0,1-6.91,10.68l-10.73,3.83Z" transform="translate(-74.23 -39.27)"/>
      <path class="o" d="M577.46,212.39c-8.29-4-15.43-13.74-18.06-26.17-2.51-11.88-.29-23.2,5.12-30.28,9.06,2.49,25,8.47,28.37,20.41C596.8,190,588.76,205.94,577.46,212.39Z" transform="translate(-74.23 -39.27)"/>
      <circle class="q" cx="587.83" cy="180.83" r="12.18" transform="translate(-29.92 429.35) rotate(-45)"/>
      <path class="f" d="M670.58,409.56H648.81V235a3.83,3.83,0,0,0-3.83-3.83h0a3.82,3.82,0,0,0-3.83,3.83V409.56H619.68a5.13,5.13,0,0,0-5.17,4.49,5,5,0,0,0,5,5.46h51.32a5,5,0,0,0,5-5.46A5.13,5.13,0,0,0,670.58,409.56Z" transform="translate(-74.23 -39.27)"/>
      <circle class="e" cx="572.03" cy="246.99" r="8"/>
    </g>
    <g>
      <g>
        <rect class="o" x="247.6" y="305.36" width="95.36" height="41.28"/>
        <rect class="o" x="253.66" y="60.15" width="228.8" height="348.29" rx="14.71" transform="translate(528.13 -173.03) rotate(90)"/>
        <path class="b" d="M532,134.47V334.12a4.39,4.39,0,0,1-4.4,4.4H208.49a4.4,4.4,0,0,1-4.41-4.4V134.47a4.4,4.4,0,0,1,4.41-4.4H527.63A4.4,4.4,0,0,1,532,134.47Z" transform="translate(-74.23 -39.27)"/>
        <path class="r" d="M528.15,338.49a4.41,4.41,0,0,1-.52,0H208.49a4.4,4.4,0,0,1-4.41-4.4V134.47Z" transform="translate(-74.23 -39.27)"/>
        <rect class="q" x="143.52" y="124.53" width="300.61" height="159.9" rx="2"/>
        <rect class="q" x="308.36" y="99.81" width="131.99" height="15.41" rx="7.57"/>
        <polygon class="p" points="342.97 309.43 342.97 335.85 247.6 312.8 247.6 309.43 342.97 309.43"/>
        <g>
          <rect class="s" x="156.9" y="151.85" width="270.38" height="116.29"/>
          <line class="s" x1="156.9" y1="162.32" x2="427.27" y2="162.32"/>
          <line class="s" x1="156.9" y1="174.09" x2="427.27" y2="174.09"/>
          <line class="s" x1="156.9" y1="185.87" x2="427.27" y2="185.87"/>
          <line class="s" x1="156.9" y1="197.64" x2="427.27" y2="197.64"/>
          <line class="s" x1="156.9" y1="209.42" x2="427.27" y2="209.42"/>
          <line class="s" x1="156.9" y1="221.19" x2="427.27" y2="221.19"/>
          <line class="s" x1="156.9" y1="232.97" x2="427.27" y2="232.97"/>
          <line class="s" x1="156.9" y1="244.74" x2="427.27" y2="244.74"/>
          <line class="s" x1="156.9" y1="256.52" x2="427.27" y2="256.52"/>
        </g>
        <g>
          <polygon class="o" points="434.11 349.32 150.36 349.32 138.15 361.09 138.15 373.88 452.42 373.88 452.42 361.09 434.11 349.32"/>
          <polygon class="t" points="426.76 345.61 297.75 345.61 288.74 345.61 159.73 345.61 148.61 355.2 148.61 361.09 288.74 361.09 297.75 361.09 437.88 361.09 437.88 355.2 426.76 345.61"/>
        </g>
        <g>
          <rect class="m" x="452.42" y="176.48" width="15.32" height="130.65" transform="translate(845.93 444.34) rotate(180)"/>
          <rect class="t" x="414.31" y="194.29" width="15.32" height="112.84" transform="translate(769.71 462.15) rotate(180)"/>
          <rect class="f" x="376.2" y="206.22" width="15.32" height="100.91" transform="translate(693.49 474.08) rotate(180)"/>
          <rect class="m" x="338.09" y="227.07" width="15.32" height="80.06" transform="translate(617.27 494.93) rotate(180)"/>
          <rect class="e" x="299.98" y="248.92" width="15.32" height="58.21" transform="translate(541.05 516.79) rotate(180)"/>
          <rect class="u" x="261.87" y="275.56" width="15.32" height="31.57" transform="translate(464.83 543.42) rotate(180)"/>
          <polygon class="t" points="366.14 127.77 356.23 132.62 359.7 133.75 354.91 139.24 319.61 139.24 309.12 155.65 276.03 155.65 250.42 189.49 227.21 189.49 201.59 223.32 175.24 223.32 175.24 225.19 202.52 225.19 228.13 191.35 251.35 191.35 276.96 157.52 310.14 157.52 320.63 141.11 355.76 141.11 361.11 134.97 362.7 138.25 366.14 127.77"/>
        </g>
      </g>
      <g>
        <polygon class="j" points="488.69 396.63 489.5 403.81 497.15 403.81 497.15 397.09 488.69 396.63"/>
        <path class="p" d="M563.55,441.46s-11.4,6.83-11.4,8,.34,1.74,7.41,1.74,11.35.34,12.28,0-.46-9.73-.46-9.73A17.52,17.52,0,0,0,563.55,441.46Z" transform="translate(-74.23 -39.27)"/>
        <polygon class="j" points="514.53 396.63 515.45 401.73 523.33 401.73 523.33 397.09 514.53 396.63"/>
        <path class="p" d="M597.56,440.53h-8l-1.14,3.75c-1.3,1.15-3.21,2.82-4.22,3.55-1.62,1.16-2.67,2.85,2.08,3.51a2.88,2.88,0,0,0,.88,0h9.88a1.77,1.77,0,0,0,1.77-1.87C598.63,446.1,597.56,440.53,597.56,440.53Z" transform="translate(-74.23 -39.27)"/>
        <path class="j" d="M600.4,299.57s1.1,15.19,2.19,26.25-4.71,29.32-4.71,29.32-.22,3.79-1.21,5.65a5.67,5.67,0,0,1-2.74,2.52l-.45-14,.79-18.16-3-18.43,2.75-8.5Z" transform="translate(-74.23 -39.27)"/>
        <path class="v" d="M591.84,277.78s7.24,6.21,12.07,22.67l-10.53,6.8S594.25,285.17,591.84,277.78Z" transform="translate(-74.23 -39.27)"/>
        <polygon class="f" points="517.06 301.66 532.8 305.39 529.35 326.6 516.28 322.44 517.06 301.66"/>
        <path class="p" d="M598.85,437.38l-11.53,1.07-10.91-81.16L572,438.8l-10.42.69a.42.42,0,0,0,0-.07c-.15-1.61-2.95-31.19-4.27-47.68C556,376.1,555.13,340,555,334.44c0-.47,0-.71,0-.71,23.43,4.75,38,0,38,0Z" transform="translate(-74.23 -39.27)"/>
        <path class="n" d="M560.22,395.46a329.08,329.08,0,0,0,4.06,43.78l-2.73.18c-.15-1.61-2.95-31.19-4.27-47.68C556,376.1,555.13,340,555,334.44a41.24,41.24,0,0,0,11.22,1.92S558.67,342.9,560.22,395.46Z" transform="translate(-74.23 -39.27)"/>
        <path class="j" d="M577.14,274.12l-10,3.66v-7.16a12.78,12.78,0,0,1-7-11.15c-.32-8.24,2.86-16.83,12.4-16.51s11,10.34,10.17,14.31-5.24,9.22-5.24,9.22Z" transform="translate(-74.23 -39.27)"/>
        <path class="p" d="M567.57,251.62s-2.62,3.66-1.55,6.76c0,0,1.63-2,3.14-1.91s2.22,2.15,1.27,4.93-4,2.54-4,2.54a18,18,0,0,0,2.7,3.26l8.38-.71s6.72-6.28,7.52-10-.64-4.85-.64-4.85a7.31,7.31,0,0,0-1.45-6.6c-2.6-3.1-10.15-7.55-13.49-7.55s-3.18,2-3.18,2S563,237.79,562.8,241C562.7,242.25,562.8,247.17,567.57,251.62Z" transform="translate(-74.23 -39.27)"/>
        <path class="e" d="M565.87,274.89,551.69,280,555,334.46a92.63,92.63,0,0,0,22.24,2.19c11.33-.43,15.72-2.41,15.72-2.41s3.29-40.16,3.07-46.08a18.41,18.41,0,0,0-4.17-10.38l-7-2.69A27.05,27.05,0,0,0,565.87,274.89Z" transform="translate(-74.23 -39.27)"/>
        <path class="v" d="M565.12,275.17s2.15-3.61,8.14-4.78a7.79,7.79,0,0,1,8.51,3.71A32.44,32.44,0,0,0,565.12,275.17Z" transform="translate(-74.23 -39.27)"/>
        <path class="j" d="M556.62,343.24c-.33-2.91-1-3.15-1-3.15L543.37,324l10-15.23L542.84,296.5s-11.12,21.06-11.71,27.5,19.31,22.24,19.31,22.24a48.61,48.61,0,0,0,2.51,4.84s.22,1.54.44,2.85,2.19,1.21,2.19,1.21l0-4.06S557,346.14,556.62,343.24Z" transform="translate(-74.23 -39.27)"/>
        <path class="e" d="M551.69,280l-13.24,16.17,15,12.56S559.37,292.84,551.69,280Z" transform="translate(-74.23 -39.27)"/>
        <path class="v" d="M553.42,308.77s3.94-17.3,0-27.11c0,0,5.87,5.34,5.2,16.55s-4.92,15.09-4.92,15.09Z" transform="translate(-74.23 -39.27)"/>
        <path class="n" d="M576.42,357.29l12-6.26s-4.14,3.61-2.93,26.15,7.72,60.72,7.72,60.72l-5.84.55Z" transform="translate(-74.23 -39.27)"/>
      </g>
      <g>
        <path class="j" d="M170.23,385.08s5.51,38.85,12.47,55.56l6.15-1.24-6.08-58.54Z" transform="translate(-74.23 -39.27)"/>
        <path class="o" d="M181.48,437.47s.1,7.65,1.47,10.56l1.37,2.91,2.31-.47-.55-2.72s2.9,1,4.47,1.43S202.67,447.86,204,447s-9.27-4.14-9.27-4.14-3.5,2.27-7.1.59S181.48,437.47,181.48,437.47Z" transform="translate(-74.23 -39.27)"/>
        <path class="j" d="M188.1,437.43s4.94,4.85,6.61,5.39-4.07,3.66-8.26.82-4.8-5.91-4.8-5.91Z" transform="translate(-74.23 -39.27)"/>
        <path class="j" d="M157,385.41s-2.3,39.17,1.21,56.94h6.28l5.64-58.59Z" transform="translate(-74.23 -39.27)"/>
        <polygon class="f" points="85.89 234.3 70.27 240.63 78.91 286.78 100.82 285.95 105.92 240.04 94.69 236.47 94.69 238.9 85.89 234.3"/>
        <polygon class="w" points="82.62 254.15 87.29 278.04 103.55 274.38 98.91 251.59 82.62 254.15"/>
        <path class="j" d="M141.71,285.56c.9,6.93,2.67,17.49,5.7,24.46a7,7,0,0,0,8.69,3.75l19.36-6.67-2-5.67-17.86,2.13s-.81-13.19-3.28-20.45c0-.08-.05-.15-.08-.22C150,276.8,140.87,279.12,141.71,285.56Z" transform="translate(-74.23 -39.27)"/>
        <path class="x" d="M180.15,279.31s2.65,2.05,2.09,11.49,2.75,19.46-3.5,20.3C178.74,311.1,179,284.29,180.15,279.31Z" transform="translate(-74.23 -39.27)"/>
        <path class="j" d="M182.32,304.23c-.14,5.49-3.58,6.86-3.58,6.86s-2.2.72-5-3.78c-1.66-2.73-1.51-29-1.49-31.58h0v0l-2.31-4.63-.15-.31.27-1.09h0l2,1.44.44-2.07,2.21-5.79,1.37,1.5h0l.3.32.4,1.09s1.1.79,1,1.42-1,5.43-1,5.43a1.05,1.05,0,0,1-.17.28C177.76,278.49,182.44,299.42,182.32,304.23Z" transform="translate(-74.23 -39.27)"/>
        <path class="x" d="M174.33,274s-.6,2-2,1.77h0l-2.31-4.63c0-.45.07-.92.13-1.39l2,1.44.44-2.07,2.21-5.79,1.37,1.5h0C177.42,269.32,174.33,274,174.33,274Z" transform="translate(-74.23 -39.27)"/>
        <path class="j" d="M160.18,275l8.74,3.19v-6.25a11.16,11.16,0,0,0,6.11-9.74c.28-7.19-2.5-14.68-10.83-14.4s-9.57,9-8.88,12.49,4.58,8.05,4.58,8.05Z" transform="translate(-74.23 -39.27)"/>
        <path class="p" d="M155.67,248.47s-3,1.8-5.41,7.91-4.52,18.18-4.52,18.18l5,.49.86-3.33-.07,3.33s6.36.71,8.54.69a99.88,99.88,0,0,0,0-10.48c-.35-3-2.43-1.25-3.33-5.34s2.22-3.4,3-2a7.22,7.22,0,0,1,1,2.63l.77-.41s1.31-4,0-6.8c0,0,4.72-1.39,6.94-1.18v-2l.9,1.88,3.83.66a17.39,17.39,0,0,1,1.88,7.11s1.83-3.33,0-8.19S163.3,242.22,155.67,248.47Z" transform="translate(-74.23 -39.27)"/>
        <path class="p" d="M185,385.41h0l-29.86,5.3s-9.83-37.74-9.41-51.35,5.56-20.23,5.56-20.23c20.43,3.37,24.55,0,24.55,0C186.41,337.25,185,384.5,185,385.41Z" transform="translate(-74.23 -39.27)"/>
        <path class="o" d="M157.64,439s-1.42,7.52-.65,10.64l.76,3.13h2.36V450s2.64,1.6,4.09,2.29,12.15,1.11,13.6.49-8.25-5.9-8.25-5.9-3.89,1.53-7.08-.83S157.64,439,157.64,439Z" transform="translate(-74.23 -39.27)"/>
        <path class="j" d="M164.13,440.27s3.88,5.73,5.42,6.59-4.72,2.78-8.26-.83-3.54-6.75-3.54-6.75Z" transform="translate(-74.23 -39.27)"/>
        <path class="p" d="M160.12,273.57l7.77,4.22s-2.92,1.83-5.49,1.52-4.58-4.75-4.58-4.75Z" transform="translate(-74.23 -39.27)"/>
        <path class="p" d="M168.92,274.77l-1,3s.89,1.28,1.9.93.76-3,.76-3Z" transform="translate(-74.23 -39.27)"/>
        <path class="n" d="M185,385.41c0-.25-.06-9.43-7.73-28.37-7.78-19.21-26-37.9-26-37.9,20.43,3.37,24.55,0,24.55,0C186.41,337.25,185,384.5,185,385.41Z" transform="translate(-74.23 -39.27)"/>
        <path class="x" d="M161.32,266.81a9.47,9.47,0,0,0,7.6,5.11v1.65S161.73,273.71,161.32,266.81Z" transform="translate(-74.23 -39.27)"/>
        <path class="x" d="M155.81,304.08a35.8,35.8,0,0,1-.47,5.6S158.41,307.9,155.81,304.08Z" transform="translate(-74.23 -39.27)"/>
        <path class="x" d="M171.88,395.55l11.75-6.43-.35-3.39L170.66,388Z" transform="translate(-74.23 -39.27)"/>
        <polygon class="x" points="94.69 356.95 82.26 357.92 82.51 351.17 95.47 348.87 94.69 356.95"/>
      </g>
    </g>
  </g>
</svg>
