<svg width="95" height="87" viewBox="0 0 95 87" fill="none" xmlns="http://www.w3.org/2000/svg">
<path d="M51.424 47.4511C57.9823 47.4511 63.2988 52.7622 63.2988 59.3138L63.2926 65.2323C64.107 79.7567 52.9088 87 32.1426 87C11.4435 87 0 79.8515 0 65.4395V59.3138C0 52.7622 5.31652 47.4511 11.8748 47.4511H51.424ZM83.0949 47.4511C89.6531 47.4511 94.9696 52.7622 94.9696 59.3138L94.9637 63.4782C95.6795 76.5072 85.7848 83.0393 67.6989 83.0393C65.2438 83.0393 62.9358 82.9199 60.7803 82.6808C65.0292 78.7611 67.3021 73.442 67.2943 66.7207L67.2447 65.0111L67.2571 59.3138C67.2571 54.5879 65.1823 50.3461 61.8932 47.4478L83.0949 47.4511ZM31.6661 0C42.5983 0 51.4606 8.85333 51.4606 19.7745C51.4606 30.6956 42.5983 39.549 31.6661 39.549C20.7339 39.549 11.8716 30.6956 11.8716 19.7745C11.8716 8.85333 20.7339 0 31.6661 0ZM71.2487 7.90851C79.993 7.90851 87.0817 14.99 87.0817 23.7255C87.0817 32.461 79.993 39.5425 71.2487 39.5425C62.5043 39.5425 55.4156 32.461 55.4156 23.7255C55.4156 14.99 62.5043 7.90851 71.2487 7.90851Z" fill="#279B46"/>
</svg>
