<svg width="87" height="87" viewBox="0 0 87 87" fill="none" xmlns="http://www.w3.org/2000/svg">
<path d="M26.0903 69.6C21.3071 69.6 17.437 73.515 17.437 78.3C17.437 83.085 21.3071 87 26.0903 87C30.8735 87 34.7871 83.085 34.7871 78.3C34.7871 73.515 30.8735 69.6 26.0903 69.6ZM0 4.35C0 6.7425 1.95677 8.7 4.34839 8.7H8.69677L24.351 41.7165L18.4806 52.3305C15.3063 58.1595 19.4808 65.25 26.0903 65.25H73.9226C76.3142 65.25 78.2709 63.2925 78.2709 60.9C78.2709 58.5075 76.3142 56.55 73.9226 56.55H26.0903L30.8735 47.85H63.269C66.5303 47.85 69.4002 46.0665 70.8787 43.3695L86.4459 15.138C88.0548 12.267 85.9676 8.7 82.6628 8.7H18.3067L15.3933 2.4795C14.6975 0.957 13.1321 0 11.4797 0H4.34839C1.95677 0 0 1.9575 0 4.35V4.35ZM69.5742 69.6C64.7909 69.6 60.9209 73.515 60.9209 78.3C60.9209 83.085 64.7909 87 69.5742 87C74.3574 87 78.2709 83.085 78.2709 78.3C78.2709 73.515 74.3574 69.6 69.5742 69.6Z" fill="#02C9D6"/>
</svg>
