<svg width="433" height="402" viewBox="0 0 433 402" fill="none" xmlns="http://www.w3.org/2000/svg">
<path d="M388.27 401.91H8.90001C6.53958 401.91 4.27583 400.972 2.60676 399.303C0.937682 397.634 5.63112e-06 395.371 5.63112e-06 393.01C-0.00131022 391.841 0.227998 390.683 0.674799 389.603C1.1216 388.522 1.77712 387.541 2.60382 386.714C3.43053 385.887 4.41218 385.232 5.49257 384.785C6.57296 384.338 7.73087 384.109 8.90001 384.11H388.27C390.63 384.11 392.894 385.048 394.563 386.717C396.232 388.386 397.17 390.65 397.17 393.01V393.01C397.167 395.37 396.229 397.632 394.56 399.3C392.892 400.969 390.63 401.907 388.27 401.91V401.91Z" fill="#E6EDFF"/>
<path d="M391.56 227.38L391.08 227.09C379.57 220.39 366 217.81 352.92 214.58C340.77 211.58 327.13 207.58 317.8 198.7C306.46 187.94 308.04 173.12 312.4 159.64C316.98 145.49 321.3 131.25 319.28 116.23C316.913 98.793 309.126 82.5406 297.02 69.7701C278.02 49.8501 248.6 39.2901 220.41 42.2701C182.58 46.2701 151.51 72.3701 127.92 100.62C112.44 119.16 103.31 140.21 85.6495 157.82C68.1995 175.22 48.5995 190.9 33.9095 210.62C14.3795 236.86 4.83952 270.34 11.1795 301.87C17.5195 333.4 40.7095 362.2 72.4595 373.58C92.6795 380.83 114.86 380.98 136.46 381.04C181.38 381.15 226.36 381.27 271.13 377.86C300.59 375.62 330.45 371.72 357.29 360.01C384.13 348.3 407.9 327.77 416.7 301.09C425.46 274.58 416.38 242.17 391.56 227.38Z" fill="#BFD2FF"/>
<path d="M30.6496 164.85C29.9578 162.346 28.6278 160.065 26.7896 158.23L23.7896 155.88C21.4895 154.551 18.8761 153.86 16.2196 153.88H15.4796C13.4718 153.794 11.4772 154.243 9.69961 155.18C7.8465 155.774 6.18123 156.843 4.86962 158.28C3.43787 159.592 2.36995 161.253 1.76961 163.1C0.832952 164.878 0.38763 166.873 0.479612 168.88C0.649612 170.21 0.829615 171.54 1.00962 172.88C1.69757 175.37 3.01682 177.64 4.83961 179.47L7.83961 181.82C10.139 183.151 12.7529 183.842 15.4096 183.82H16.1496C18.1567 183.912 20.1521 183.467 21.9296 182.53C23.7791 181.935 25.4408 180.866 26.7496 179.43C28.1865 178.116 29.258 176.452 29.8596 174.6C30.794 172.822 31.2392 170.827 31.1496 168.82L30.6496 164.85Z" fill="#E6EDFF"/>
<path d="M399.87 182.09C417.77 182.09 432.28 167.58 432.28 149.68C432.28 131.78 417.77 117.27 399.87 117.27C381.97 117.27 367.46 131.78 367.46 149.68C367.46 167.58 381.97 182.09 399.87 182.09Z" fill="#BFD2FF"/>
<path d="M278.6 0.18C277.232 0.45904 275.893 0.864101 274.6 1.39C274.682 1.48566 274.759 1.58581 274.83 1.69C275.078 2.09185 275.245 2.53864 275.321 3.00488C275.396 3.47112 275.379 3.94766 275.27 4.40731C275.162 4.86696 274.964 5.30071 274.687 5.6838C274.411 6.06688 274.062 6.3918 273.66 6.64C273.258 6.8882 272.812 7.05482 272.345 7.13034C271.879 7.20587 271.403 7.18883 270.943 7.08018C270.483 6.97154 270.05 6.77342 269.666 6.49715C269.283 6.22087 268.958 5.87185 268.71 5.47C268.639 5.35086 268.576 5.22728 268.52 5.1C267.458 6.02877 266.487 7.05676 265.62 8.17C265.75 8.17 265.88 8.26 266 8.32C266.438 8.5298 266.829 8.82603 267.15 9.19087C267.47 9.55571 267.713 9.98161 267.865 10.4429C268.017 10.9043 268.073 11.3915 268.032 11.8753C267.99 12.3592 267.851 12.8295 267.623 13.2582C267.395 13.6869 267.082 14.0649 266.704 14.3697C266.326 14.6744 265.89 14.8995 265.423 15.0314C264.955 15.1633 264.466 15.1992 263.985 15.1371C263.503 15.075 263.039 14.9161 262.62 14.67C262.489 14.5937 262.362 14.5102 262.24 14.42C261.773 15.7642 261.438 17.1508 261.24 18.56C261.389 18.5295 261.539 18.5095 261.69 18.5C262.62 18.5045 263.513 18.8689 264.18 19.5166C264.847 20.1644 265.238 21.0453 265.271 21.9749C265.303 22.9044 264.974 23.8103 264.353 24.5029C263.733 25.1955 262.868 25.6209 261.94 25.69C261.77 25.6999 261.6 25.6999 261.43 25.69C261.7 27.1002 262.109 28.4803 262.65 29.81C262.778 29.6957 262.915 29.592 263.06 29.5C263.867 29.047 264.818 28.9223 265.715 29.1518C266.611 29.3813 267.385 29.9473 267.875 30.7323C268.366 31.5173 268.535 32.461 268.348 33.3675C268.161 34.2739 267.631 35.0734 266.87 35.6C266.711 35.694 266.543 35.7743 266.37 35.84C267.319 36.9411 268.374 37.9459 269.52 38.84C269.576 38.6675 269.646 38.5002 269.73 38.34C270.177 37.4979 270.94 36.8679 271.852 36.5885C272.763 36.309 273.748 36.4031 274.59 36.85C275.432 37.2969 276.062 38.06 276.342 38.9714C276.621 39.8828 276.527 40.8679 276.08 41.71C275.984 41.8824 275.874 42.0463 275.75 42.2C277.123 42.6764 278.54 43.0114 279.98 43.2C279.942 43.0156 279.918 42.8283 279.91 42.64C279.876 41.6879 280.221 40.7611 280.87 40.0634C281.519 39.3658 282.418 38.9545 283.37 38.92C284.322 38.8855 285.249 39.2307 285.947 39.8796C286.644 40.5284 287.056 41.4279 287.09 42.38C287.11 42.5795 287.11 42.7805 287.09 42.98C288.519 42.698 289.917 42.2725 291.26 41.71C291.13 41.5749 291.013 41.4275 290.91 41.27C290.659 40.8701 290.49 40.4248 290.411 39.9593C290.332 39.4939 290.346 39.0175 290.452 38.5574C290.557 38.0973 290.752 37.6625 291.025 37.2777C291.299 36.893 291.645 36.5658 292.045 36.315C292.445 36.0642 292.89 35.8946 293.356 35.8159C293.821 35.7372 294.298 35.7509 294.758 35.8563C295.218 35.9617 295.653 36.1567 296.038 36.4301C296.422 36.7036 296.749 37.0501 297 37.45C297.099 37.6137 297.186 37.7841 297.26 37.96C298.345 37.0056 299.333 35.9473 300.21 34.8C300.04 34.7438 299.873 34.677 299.71 34.6C298.867 34.1518 298.236 33.3869 297.957 32.4736C297.677 31.5603 297.772 30.5734 298.22 29.73C298.668 28.8866 299.433 28.2558 300.347 27.9764C301.26 27.697 302.247 27.7918 303.09 28.24C303.242 28.3318 303.389 28.432 303.53 28.54C303.997 27.1787 304.332 25.7756 304.53 24.35C304.369 24.3838 304.205 24.4072 304.04 24.42C303.538 24.4553 303.034 24.3849 302.561 24.2134C302.088 24.0419 301.656 23.773 301.293 23.4242C300.93 23.0754 300.644 22.6543 300.454 22.1882C300.264 21.7222 300.174 21.2214 300.189 20.7183C300.205 20.2152 300.326 19.7209 300.544 19.2674C300.762 18.8139 301.073 18.4112 301.457 18.0853C301.841 17.7594 302.288 17.5176 302.771 17.3754C303.254 17.2333 303.761 17.1939 304.26 17.26C303.982 15.8657 303.567 14.5024 303.02 13.19C302.9 13.28 302.8 13.38 302.67 13.46C301.863 13.913 300.913 14.0377 300.016 13.8082C299.119 13.5787 298.345 13.0127 297.855 12.2277C297.365 11.4427 297.196 10.499 297.383 9.59253C297.57 8.68609 298.099 7.88658 298.86 7.36C298.982 7.28675 299.109 7.22322 299.24 7.17C298.307 6.1114 297.272 5.14679 296.15 4.29C296.109 4.4134 296.059 4.5337 296 4.65C295.553 5.49206 294.79 6.12211 293.879 6.40154C292.967 6.68097 291.982 6.58689 291.14 6.14C290.298 5.69311 289.668 4.93002 289.389 4.01859C289.109 3.10716 289.203 2.12206 289.65 1.28C289.718 1.16623 289.791 1.05608 289.87 0.950001C288.54 0.493922 287.166 0.175587 285.77 0C285.797 0.118311 285.814 0.238772 285.82 0.360001C285.837 0.831446 285.76 1.30151 285.595 1.74335C285.43 2.18519 285.179 2.59016 284.857 2.93513C284.535 3.2801 284.149 3.55831 283.72 3.75389C283.29 3.94947 282.827 4.05859 282.355 4.075C281.884 4.09142 281.414 4.01481 280.972 3.84956C280.53 3.68431 280.125 3.43366 279.78 3.1119C279.435 2.79015 279.157 2.4036 278.961 1.97432C278.766 1.54504 278.657 1.08145 278.64 0.610001C278.615 0.468056 278.601 0.324207 278.6 0.18V0.18ZM282.38 9.06C284.855 8.96056 287.304 9.59803 289.416 10.8916C291.528 12.1852 293.209 14.0768 294.245 16.3265C295.281 18.5762 295.626 21.0829 295.237 23.529C294.847 25.975 293.74 28.2502 292.055 30.0664C290.371 31.8825 288.186 33.1578 285.776 33.7307C283.366 34.3036 280.841 34.1482 278.519 33.2843C276.198 32.4204 274.185 30.8869 272.736 28.878C271.287 26.8691 270.467 24.4754 270.38 22C270.264 18.695 271.461 15.4783 273.71 13.0535C275.958 10.6286 279.076 9.19278 282.38 9.06V9.06Z" fill="#E6EDFF"/>
<path d="M47.6304 128.98C69.9869 128.98 88.1104 112.347 88.1104 91.8299C88.1104 71.3126 69.9869 54.6799 47.6304 54.6799C25.2739 54.6799 7.15039 71.3126 7.15039 91.8299C7.15039 112.347 25.2739 128.98 47.6304 128.98Z" fill="#E6EDFF"/>
<path d="M46.6705 92.4L15.1005 82.3C13.8658 85.5243 13.232 88.9474 13.2305 92.4C13.2305 109.24 28.3305 123.09 46.6705 123.09C52.6832 123.103 58.6021 121.6 63.8805 118.72L46.6705 92.4Z" fill="#628AEC"/>
<path d="M48.3809 91.8301L65.8109 118.02C70.6137 115.36 74.6555 111.515 77.5509 106.85C80.3272 102.338 81.8047 97.1477 81.8209 91.8501L48.3809 91.8301Z" fill="#BFD2FF"/>
<path d="M48.5908 90.35L82.0308 89.93C81.9655 85.7282 80.9718 81.5928 79.1208 77.82C77.2155 73.954 74.5249 70.5277 71.2208 67.76L48.5908 90.35Z" fill="#FEFEFF"/>
<path d="M144.581 55.5H132.471V84.6H144.581V55.5Z" fill="#628AEC"/>
<path d="M163.3 41.26H151.19V84.6H163.3V41.26Z" fill="#628AEC"/>
<path d="M182.01 21.6001H169.9V84.5901H182.01V21.6001Z" fill="#628AEC"/>
<path d="M200.73 49.1602H188.62V84.6002H200.73V49.1602Z" fill="#628AEC"/>
<path d="M125.99 22.2102V84.3302H208.72" stroke="#628AEC" stroke-width="0.88" stroke-miterlimit="10"/>
<path d="M311.92 40.91C309.209 41.4432 306.556 42.2403 304 43.29C304.163 43.4761 304.314 43.6732 304.45 43.88C305.445 45.4713 305.766 47.3925 305.344 49.221C304.922 51.0494 303.791 52.6354 302.2 53.63C300.609 54.6245 298.688 54.9462 296.859 54.5243C295.031 54.1023 293.445 52.9713 292.45 51.38C292.314 51.1448 292.194 50.901 292.09 50.65C290.003 52.4639 288.095 54.473 286.39 56.65C286.639 56.7371 286.882 56.8372 287.12 56.95C287.942 57.384 288.671 57.9757 289.264 58.6913C289.858 59.4068 290.304 60.2323 290.579 61.1205C290.853 62.0087 290.95 62.9422 290.863 63.8678C290.777 64.7934 290.509 65.6929 290.075 66.515C289.641 67.337 289.049 68.0656 288.334 68.659C287.618 69.2524 286.793 69.6991 285.905 69.9734C285.016 70.2478 284.083 70.3446 283.157 70.2582C282.232 70.1718 281.332 69.904 280.51 69.47C280.251 69.3173 280.001 69.1504 279.76 68.97C278.85 71.613 278.203 74.3396 277.83 77.11C278.117 77.0497 278.408 77.0096 278.7 76.99C279.635 76.9449 280.57 77.086 281.45 77.4049C282.33 77.7239 283.138 78.2145 283.827 78.8482C284.516 79.4818 285.072 80.246 285.463 81.0964C285.854 81.9467 286.073 82.8663 286.106 83.8018C286.139 84.7372 285.986 85.6699 285.656 86.5458C285.326 87.4217 284.825 88.2233 284.182 88.9041C283.54 89.5849 282.769 90.1313 281.913 90.5117C281.058 90.8921 280.136 91.0988 279.2 91.12C278.866 91.1252 278.531 91.1052 278.2 91.06C278.731 93.8336 279.538 96.5472 280.61 99.16C280.856 98.9316 281.12 98.7242 281.4 98.54C282.188 98.0475 283.065 97.7151 283.982 97.5616C284.898 97.4082 285.836 97.4367 286.741 97.6457C287.646 97.8546 288.502 98.2398 289.258 98.7793C290.015 99.3188 290.658 100.002 291.15 100.79C291.643 101.578 291.975 102.455 292.128 103.372C292.282 104.288 292.253 105.226 292.044 106.131C291.835 107.036 291.45 107.892 290.911 108.648C290.371 109.405 289.688 110.048 288.9 110.54C288.581 110.729 288.247 110.889 287.9 111.02C289.766 113.168 291.84 115.128 294.09 116.87C294.194 116.526 294.328 116.191 294.49 115.87C295.365 114.211 296.864 112.968 298.656 112.414C300.447 111.859 302.386 112.04 304.045 112.915C305.704 113.79 306.947 115.289 307.501 117.08C308.056 118.872 307.875 120.811 307 122.47C306.818 122.822 306.604 123.157 306.36 123.47C309.06 124.401 311.848 125.055 314.68 125.42C314.599 125.058 314.549 124.69 314.53 124.32C314.486 123.386 314.628 122.453 314.948 121.575C315.267 120.696 315.757 119.89 316.391 119.202C317.024 118.514 317.787 117.959 318.636 117.568C319.485 117.177 320.403 116.958 321.337 116.924C322.272 116.891 323.203 117.043 324.078 117.371C324.953 117.7 325.754 118.199 326.435 118.839C327.116 119.48 327.664 120.249 328.046 121.102C328.427 121.955 328.636 122.875 328.66 123.81C328.664 124.201 328.637 124.593 328.58 124.98C331.383 124.431 334.124 123.601 336.76 122.5C336.512 122.224 336.284 121.93 336.08 121.62C335.086 120.029 334.764 118.107 335.186 116.279C335.608 114.45 336.739 112.865 338.33 111.87C339.921 110.875 341.843 110.554 343.671 110.976C345.5 111.398 347.086 112.529 348.08 114.12C348.273 114.438 348.437 114.773 348.57 115.12C350.706 113.241 352.649 111.154 354.37 108.89C354.026 108.784 353.692 108.65 353.37 108.49C352.55 108.054 351.824 107.461 351.233 106.744C350.642 106.027 350.198 105.201 349.927 104.313C349.655 103.425 349.561 102.492 349.65 101.568C349.739 100.643 350.009 99.7451 350.445 98.925C350.881 98.1049 351.474 97.3787 352.191 96.7878C352.908 96.197 353.734 95.7531 354.622 95.4815C355.51 95.2099 356.443 95.1159 357.367 95.2048C358.292 95.2938 359.19 95.564 360.01 96C360.312 96.1734 360.6 96.3707 360.87 96.59C361.771 93.9125 362.404 91.1524 362.76 88.35C362.447 88.4186 362.13 88.462 361.81 88.48C360.875 88.525 359.94 88.384 359.06 88.065C358.18 87.746 357.373 87.2555 356.684 86.6218C355.995 85.9881 355.438 85.2239 355.047 84.3736C354.656 83.5232 354.437 82.6037 354.404 81.6682C354.371 80.7327 354.524 79.8 354.854 78.9241C355.184 78.0482 355.685 77.2466 356.328 76.5659C356.97 75.8851 357.741 75.3386 358.597 74.9583C359.452 74.5779 360.374 74.3711 361.31 74.35C361.621 74.3497 361.932 74.3697 362.24 74.41C361.69 71.6688 360.869 68.989 359.79 66.41C359.574 66.6 359.347 66.777 359.11 66.94C357.519 67.9345 355.598 68.2562 353.769 67.8343C351.941 67.4123 350.355 66.2813 349.36 64.69C348.366 63.0987 348.044 61.1775 348.466 59.349C348.888 57.5205 350.019 55.9345 351.61 54.94C351.856 54.8026 352.11 54.6791 352.37 54.57C350.529 52.4902 348.493 50.5916 346.29 48.9C346.19 49.14 346.12 49.38 346 49.62C345.12 51.2762 343.617 52.5149 341.823 53.0634C340.03 53.612 338.091 53.4255 336.435 52.545C334.779 51.6644 333.54 50.162 332.992 48.3683C332.443 46.5745 332.63 44.6362 333.51 42.98C333.64 42.75 333.8 42.55 333.95 42.33C331.335 41.4557 328.643 40.8328 325.91 40.47C325.91 40.71 326 40.94 326.01 41.19C326.076 43.0651 325.395 44.8897 324.116 46.2624C322.837 47.6352 321.065 48.4437 319.19 48.51C317.315 48.5763 315.49 47.895 314.118 46.616C312.745 45.337 311.936 43.5651 311.87 41.69C311.871 41.4292 311.888 41.1688 311.92 40.91V40.91ZM319.23 54.15C324.924 53.9498 330.55 55.4427 335.396 58.4397C340.242 61.4368 344.09 65.8034 346.455 70.9876C348.819 76.1717 349.593 81.9406 348.679 87.5646C347.765 93.1886 345.203 98.4152 341.319 102.584C337.434 106.752 332.401 109.675 326.855 110.983C321.31 112.291 315.501 111.925 310.163 109.932C304.825 107.938 300.198 104.407 296.867 99.7838C293.537 95.161 291.651 89.6543 291.45 83.96C291.315 80.1781 291.927 76.4068 293.25 72.8615C294.573 69.3161 296.582 66.0664 299.162 63.2979C301.742 60.5294 304.842 58.2966 308.286 56.7269C311.729 55.1572 315.448 54.2816 319.23 54.15V54.15Z" fill="#BFD2FF"/>
<path d="M270.38 77.3102C269.51 76.6702 268.43 76.1402 268.1 75.1102C267.55 73.4702 269.32 71.7502 268.88 70.1102C268.52 68.7002 266.88 68.1102 265.4 67.9202C263.92 67.7302 262.31 67.5002 261.49 66.3002C260.8 65.3002 260.96 63.9802 260.8 62.7702C260.621 61.5577 260.099 60.4215 259.297 59.4951C258.495 58.5687 257.444 57.8905 256.27 57.5402C253.77 56.8302 251.59 59.1002 249.5 60.0102C248.408 60.4919 247.454 61.2377 246.722 62.1804C245.991 63.1231 245.505 64.2331 245.31 65.4102C244.937 67.7906 245.066 70.2228 245.69 72.5502C246.31 74.8723 246.768 77.2346 247.06 79.6202C247.152 82.1849 246.768 84.7446 245.93 87.1702C245.323 89.0362 245.434 91.0612 246.24 92.8502C247.15 94.4102 248.98 95.1302 250.71 95.6302C254.046 96.6982 257.571 97.0391 261.05 96.6302C264.355 96.1889 267.394 94.5825 269.62 92.1002C271.15 90.8605 272.326 89.2394 273.03 87.4002C274.38 83.8502 273.38 79.4702 270.38 77.3102Z" fill="#485070"/>
<path d="M253.05 65.2001C253.259 65.9286 253.319 66.6914 253.228 67.4436C253.137 68.1958 252.896 68.9222 252.52 69.5801C252.27 70.0101 251.88 70.4501 251.38 70.4101C250.88 70.3701 250.5 69.7501 250.32 69.2101C249.819 67.7144 249.503 66.1628 249.38 64.5901C249.3 63.5901 249.48 61.8901 250.85 62.2201C251.91 62.4701 252.77 64.2701 253.05 65.2001Z" fill="#FF6EA1"/>
<path d="M253.04 88.75C252.04 92.26 246.32 93.96 243.04 89.91C242.63 89.41 242.26 88.91 241.9 88.36C238.35 89.06 233.08 90.6 230.71 93.47C230.006 94.4517 229.503 95.5631 229.23 96.74C228 100.94 226.97 105.21 226.16 109.52C226.03 110.005 226.03 110.515 226.16 111C226.429 111.558 226.852 112.026 227.38 112.35C232.28 116.21 233.57 122.45 235.18 128.08C237.63 136.64 238.75 148.47 241.18 157.03C249.18 157.64 282.58 150.03 286.6 146.55C280.85 136.18 276.18 117.47 274.38 104.47C273.6 98.95 271.44 93.7 269.33 88.53C268.83 87.32 268.39 84.53 267.47 83.75C266.25 82.75 254.62 84.47 253.39 84.51C253.39 85.2 253.46 85.89 253.48 86.57C253.449 87.3153 253.3 88.051 253.04 88.75V88.75Z" fill="#FF6EA1"/>
<path d="M241.14 83.09C240.761 81.8764 240.234 80.7143 239.57 79.63C241.542 79.5721 243.451 78.9242 245.05 77.77C245.841 77.191 246.577 76.5417 247.25 75.83C247.5 75.58 247.87 74.95 248.25 74.49C247.72 75.11 249.02 78.57 249.25 79.28C249.771 80.7917 250.575 82.1901 251.62 83.4C252.67 84.57 253.36 84.77 253.55 86.4C253.691 88.1987 253.428 90.006 252.78 91.69C252.473 92.7397 251.834 93.6621 250.96 94.32C250.401 94.6197 249.786 94.8025 249.153 94.8575C248.521 94.9125 247.883 94.8385 247.28 94.64C245.21 94.1 242.37 92.37 241.63 90.21C241.24 89.08 241.63 88.49 241.78 87.33C241.845 85.8884 241.628 84.4481 241.14 83.09V83.09Z" fill="#FFC1A6"/>
<path d="M241.84 86.79C241.84 86.67 241.84 86.55 241.84 86.43C241.736 85.2944 241.504 84.174 241.15 83.09C240.771 81.8764 240.244 80.7143 239.58 79.63C241.552 79.5721 243.461 78.9242 245.06 77.77C245.85 77.191 246.587 76.5417 247.26 75.83C247.51 75.58 247.88 74.95 248.26 74.49C248.32 75.13 248.41 75.77 248.52 76.4C248.319 78.54 247.608 80.6006 246.445 82.4085C245.283 84.2165 243.704 85.7191 241.84 86.79Z" fill="#E3856D"/>
<path d="M228.65 71.9701C229.456 75.2205 231.303 78.1179 233.91 80.2201C234.599 80.8113 235.402 81.2539 236.27 81.5201C236.705 81.6464 237.164 81.6725 237.611 81.5963C238.057 81.52 238.481 81.3436 238.85 81.0801C239.85 80.2801 240.03 78.8401 240.1 77.5501C240.319 75.1464 240.242 72.7249 239.87 70.3401C239.494 67.9402 238.363 65.7228 236.64 64.0101C235.19 62.6701 231.22 60.7301 229.47 62.5801C227.57 64.5801 228.06 69.5801 228.65 71.9701Z" fill="#485070"/>
<path d="M230.72 66.31C231.06 64.04 233.62 65.72 235.72 64.76C237.53 63.93 238.9 63.2 240.94 63.35C242.781 63.4476 244.522 64.2202 245.83 65.52C246.17 65.88 246.48 66.24 246.77 66.61C247.602 67.9348 248.308 69.3342 248.88 70.79V70.89C249.071 73.6837 248.419 76.4704 247.01 78.89C246.387 80.0433 245.467 81.0092 244.345 81.6878C243.223 82.3664 241.941 82.7331 240.63 82.75C239.132 82.7238 237.692 82.1635 236.57 81.17C235.342 80.0468 234.326 78.7123 233.57 77.23C232.38 75.03 230.38 68.8 230.72 66.31Z" fill="#FFC1A6"/>
<path d="M240.62 70.5601C238.15 69.9801 235.62 69.6201 233.33 68.5001C231.607 67.7003 230.217 66.3246 229.4 64.6101C228.64 62.8601 229.16 61.6101 230.17 60.1101C231.644 57.934 233.857 56.367 236.4 55.7001C238.91 55.0401 242.05 56.0101 244.46 56.8501C246.158 57.3884 247.678 58.3768 248.86 59.7101C250.86 62.0801 251.49 66.1601 251.33 69.1601C251.221 70.3983 250.969 71.6197 250.58 72.8001C250.29 73.8001 249.78 74.9301 248.58 75.0701C247.79 75.1701 246.19 72.9001 245.38 72.4001C244.081 71.6289 242.671 71.0623 241.2 70.7201L240.62 70.5601Z" fill="#485070"/>
<path d="M236.82 73.2799C236.833 73.4243 236.888 73.5616 236.979 73.6744C237.07 73.7872 237.193 73.8703 237.331 73.9132C237.47 73.956 237.618 73.9567 237.757 73.9152C237.896 73.8736 238.019 73.7916 238.111 73.6797C238.203 73.5677 238.26 73.4309 238.274 73.2867C238.288 73.1424 238.259 72.9972 238.19 72.8696C238.121 72.742 238.016 72.6378 237.888 72.5702C237.76 72.5025 237.614 72.4746 237.47 72.4899C237.375 72.4987 237.283 72.5261 237.199 72.5707C237.115 72.6152 237.041 72.676 236.98 72.7494C236.92 72.8229 236.875 72.9076 236.847 72.9986C236.82 73.0897 236.81 73.1853 236.82 73.2799Z" fill="#485070"/>
<path d="M237.9 71.2C237.409 71.1024 236.9 71.1692 236.45 71.39" stroke="#485070" stroke-width="0.75" stroke-miterlimit="10" stroke-linecap="round"/>
<path d="M232.381 74.47C232.395 74.6137 232.452 74.7499 232.545 74.8612C232.637 74.9726 232.76 75.0541 232.898 75.0955C233.036 75.1368 233.184 75.1362 233.322 75.0936C233.46 75.0511 233.583 74.9685 233.674 74.8563C233.765 74.7442 233.82 74.6076 233.834 74.4637C233.847 74.3199 233.818 74.1753 233.749 74.0482C233.68 73.9212 233.575 73.8175 233.447 73.7501C233.319 73.6828 233.174 73.6549 233.031 73.67C232.84 73.6927 232.665 73.7889 232.544 73.9382C232.422 74.0876 232.364 74.2783 232.381 74.47V74.47Z" fill="#485070"/>
<path d="M233.38 72.4099C232.893 72.3116 232.386 72.3784 231.94 72.5999" stroke="#485070" stroke-width="0.75" stroke-miterlimit="10" stroke-linecap="round"/>
<path d="M234.96 74.5701C235.107 75.2043 235.003 75.8708 234.67 76.4301C234.563 76.56 234.504 76.722 234.5 76.8901C234.524 76.9781 234.574 77.0568 234.644 77.1158C234.713 77.1747 234.799 77.2111 234.89 77.2201C235.07 77.2278 235.25 77.2006 235.42 77.1401" stroke="#485070" stroke-width="0.75" stroke-miterlimit="10" stroke-linecap="round"/>
<path d="M238.62 78.2C238.313 78.5276 237.933 78.7787 237.511 78.9333C237.089 79.0878 236.637 79.1415 236.19 79.09" stroke="#485070" stroke-width="0.75" stroke-miterlimit="10" stroke-linecap="round"/>
<path d="M249.05 70.71C249.102 71.2331 248.999 71.7601 248.752 72.2244C248.505 72.6887 248.126 73.0694 247.663 73.3185C247.2 73.5676 246.674 73.6738 246.15 73.6239C245.627 73.5739 245.13 73.37 244.723 73.0378C244.315 72.7056 244.015 72.2601 243.861 71.7575C243.706 71.2549 243.704 70.7179 243.855 70.2141C244.005 69.7104 244.302 69.2625 244.707 68.9272C245.112 68.5918 245.607 68.384 246.13 68.33C246.478 68.294 246.83 68.3271 247.165 68.4273C247.5 68.5276 247.812 68.693 248.084 68.9141C248.355 69.1351 248.58 69.4076 248.746 69.7158C248.911 70.0239 249.015 70.3618 249.05 70.71V70.71Z" fill="#FFC1A6"/>
<path d="M246.799 69.8C246.603 69.7934 246.409 69.8368 246.234 69.9259C246.059 70.0151 245.909 70.1473 245.799 70.31C245.695 70.4758 245.634 70.6653 245.621 70.861C245.609 71.0567 245.646 71.2524 245.729 71.43C245.833 71.3122 245.969 71.2282 246.121 71.189C246.272 71.1498 246.432 71.1571 246.579 71.21C246.726 71.2667 246.852 71.3653 246.943 71.4933C247.033 71.6213 247.084 71.7732 247.089 71.93" stroke="#485070" stroke-width="0.75" stroke-linecap="round" stroke-linejoin="round"/>
<path d="M310.78 243.74H99.8298C95.0029 243.74 91.0898 247.653 91.0898 252.48V370.84C91.0898 375.667 95.0029 379.58 99.8298 379.58H310.78C315.607 379.58 319.52 375.667 319.52 370.84V252.48C319.52 247.653 315.607 243.74 310.78 243.74Z" fill="#DCE4FF" stroke="#485070" stroke-width="0.75" stroke-miterlimit="10"/>
<path d="M336.43 379.75H74.1797C74.1797 382.641 75.3281 385.413 77.3722 387.457C79.4164 389.502 82.1888 390.65 85.0797 390.65H325.53C328.421 390.65 331.193 389.502 333.237 387.457C335.281 385.413 336.43 382.641 336.43 379.75V379.75Z" fill="#BAC5EF" stroke="#485070" stroke-width="0.75" stroke-miterlimit="10"/>
<path d="M307.209 249.08H103.399C99.6272 249.08 96.5693 252.138 96.5693 255.91V368.49C96.5693 372.262 99.6272 375.32 103.399 375.32H307.209C310.981 375.32 314.039 372.262 314.039 368.49V255.91C314.039 252.138 310.981 249.08 307.209 249.08Z" fill="#545D78"/>
<path d="M208.38 246.29C208.38 246.624 208.281 246.951 208.095 247.229C207.909 247.507 207.646 247.724 207.337 247.851C207.028 247.979 206.688 248.013 206.36 247.948C206.032 247.882 205.731 247.721 205.495 247.485C205.259 247.249 205.098 246.948 205.032 246.62C204.967 246.292 205.001 245.952 205.129 245.643C205.257 245.335 205.473 245.071 205.751 244.885C206.029 244.699 206.356 244.6 206.69 244.6C206.912 244.599 207.133 244.642 207.338 244.726C207.544 244.811 207.731 244.935 207.888 245.092C208.045 245.249 208.17 245.436 208.254 245.642C208.339 245.847 208.381 246.068 208.38 246.29V246.29Z" fill="#333333"/>
<path d="M118.989 120.94L118.989 374.58H291.609V120.94H118.989Z" fill="#FEFEFF"/>
<path d="M221.159 354.46L198.189 325.84L178.209 351.44L160.889 332.72L163.159 330.63L178.009 346.68L198.149 320.87L220.519 348.74L233.509 322.23L260.919 317.38L261.449 320.42L235.589 324.99L221.159 354.46Z" fill="#E6EDFF"/>
<path d="M265.139 318.9C265.139 318.107 264.903 317.332 264.461 316.673C264.019 316.014 263.391 315.501 262.658 315.2C261.924 314.899 261.117 314.823 260.34 314.981C259.562 315.139 258.85 315.525 258.293 316.09C257.735 316.654 257.358 317.372 257.21 318.151C257.061 318.93 257.147 319.736 257.458 320.466C257.768 321.196 258.289 321.817 258.953 322.25C259.617 322.684 260.395 322.91 261.189 322.9C262.241 322.887 263.245 322.46 263.985 321.711C264.724 320.962 265.139 319.952 265.139 318.9V318.9Z" fill="#FF6EA1"/>
<path d="M224.959 351.6C224.969 350.807 224.742 350.029 224.309 349.364C223.876 348.7 223.254 348.18 222.524 347.869C221.794 347.559 220.989 347.472 220.209 347.621C219.43 347.77 218.713 348.147 218.148 348.704C217.584 349.261 217.198 349.974 217.04 350.751C216.881 351.528 216.957 352.335 217.259 353.069C217.56 353.803 218.072 354.431 218.731 354.872C219.39 355.314 220.165 355.55 220.959 355.55C222.011 355.55 223.021 355.136 223.77 354.396C224.518 353.657 224.946 352.652 224.959 351.6Z" fill="#628AEC"/>
<path d="M238.039 323.61C238.039 322.819 237.804 322.046 237.365 321.388C236.925 320.73 236.301 320.217 235.57 319.915C234.839 319.612 234.035 319.533 233.259 319.687C232.483 319.841 231.77 320.222 231.211 320.782C230.651 321.341 230.27 322.054 230.116 322.83C229.962 323.606 230.041 324.41 230.344 325.141C230.646 325.872 231.159 326.496 231.817 326.936C232.475 327.376 233.248 327.61 234.039 327.61C235.1 327.61 236.117 327.189 236.868 326.439C237.618 325.688 238.039 324.671 238.039 323.61Z" fill="#FFB861"/>
<path d="M198.019 327.57C200.206 327.57 201.979 325.797 201.979 323.61C201.979 321.423 200.206 319.65 198.019 319.65C195.832 319.65 194.059 321.423 194.059 323.61C194.059 325.797 195.832 327.57 198.019 327.57Z" fill="#FFB861"/>
<path d="M178.579 352.55C180.766 352.55 182.539 350.777 182.539 348.59C182.539 346.403 180.766 344.63 178.579 344.63C176.392 344.63 174.619 346.403 174.619 348.59C174.619 350.777 176.392 352.55 178.579 352.55Z" fill="#FF6EA1"/>
<path d="M166.839 332.47C166.839 331.679 166.604 330.905 166.165 330.248C165.725 329.59 165.101 329.077 164.37 328.774C163.639 328.472 162.834 328.392 162.059 328.547C161.283 328.701 160.57 329.082 160.01 329.642C159.451 330.201 159.07 330.914 158.916 331.69C158.761 332.466 158.841 333.27 159.143 334.001C159.446 334.732 159.959 335.356 160.617 335.796C161.274 336.235 162.048 336.47 162.839 336.47C163.9 336.47 164.917 336.049 165.667 335.298C166.417 334.548 166.839 333.531 166.839 332.47Z" fill="#3FD4C7"/>
<path d="M145.459 307.42V361.41H265.939" stroke="#485070" stroke-width="0.75" stroke-miterlimit="10"/>
<path d="M173.439 221.23H155.049V263.94H173.439V221.23Z" fill="#FFB861"/>
<path d="M201.859 200.33H183.469V263.94H201.859V200.33Z" fill="#FF6EA1"/>
<path d="M151.618 208.99C173.755 198.877 193.455 184.116 209.378 165.71" stroke="#485070" stroke-width="0.75" stroke-miterlimit="10" stroke-linecap="round"/>
<path d="M211.099 163.74L209.789 167.47L209.249 165.83L207.559 165.49L211.099 163.74Z" fill="#485070"/>
<path d="M230.288 171.48H211.898V263.94H230.288V171.48Z" fill="#3FD4C7"/>
<path d="M258.718 211.92H240.328V263.94H258.718V211.92Z" fill="#628AEC"/>
<path d="M144.229 173.21V264.08H267.079" stroke="#485070" stroke-width="0.75" stroke-miterlimit="10"/>
<path d="M266.899 272.85H143.529V279.06H266.899V272.85Z" fill="#E6EDFF"/>
<path d="M242.129 149.87H167.989V156.08H242.129V149.87Z" fill="#E6EDFF"/>
<path d="M266.749 139.02H143.379V145.23H266.749V139.02Z" fill="#E6EDFF"/>
<path d="M266.899 284.24H143.529V290.45H266.899V284.24Z" fill="#E6EDFF"/>
<path d="M266.899 295.63H143.529V301.84H266.899V295.63Z" fill="#E6EDFF"/>
<path d="M262.22 84.0001C260.78 84.3401 259.36 84.7401 257.94 85.1401C257.695 85.1922 257.464 85.2944 257.26 85.4401C257.03 85.697 256.884 86.0179 256.84 86.3601C256.407 88.8097 256.471 91.3216 257.029 93.7458C257.588 96.1701 258.629 98.457 260.09 100.47C260.97 101.57 262.01 102.53 262.96 103.56C263.91 104.59 265.16 105.51 265.96 106.56C266.96 107.81 267.35 109.83 267.8 111.32C268.848 114.754 269.493 118.297 269.72 121.88C269.88 124.25 269.99 126.95 271.81 128.48C273.63 130.01 276.48 129.61 278.34 128.17C280.114 126.592 281.404 124.542 282.06 122.26C284.194 116.473 285.176 110.324 284.95 104.16C284.68 98.5701 282.95 91.8301 279.36 87.4101C276.94 84.4101 272.96 83.1301 269.14 83.0701C266.804 83.0978 264.481 83.4101 262.22 84.0001Z" fill="#FF6EA1"/>
<path d="M265.641 117.47C266.974 110.29 268.307 103.11 269.641 95.9302" stroke="#485070" stroke-width="0.75" stroke-miterlimit="10"/>
<path d="M267.03 97.3C267.49 98.47 267.95 99.64 268.4 100.81" stroke="#485070" stroke-width="0.75" stroke-miterlimit="10"/>
<path d="M239.97 132.96C240.481 132.778 241.017 132.677 241.56 132.66C246.42 132.56 251.15 132.06 256.05 131.56C259.33 131.23 262.6 131.05 265.87 131C268.5 131 271.55 131.53 274.12 130.81C276.69 130.09 278.68 129.28 280.04 127.04C280.688 125.962 281.279 124.851 281.81 123.71C282.167 123.107 282.328 122.408 282.27 121.71C282.06 120.71 280.97 120.12 279.9 119.71C277.63 118.87 276.22 117.57 273.61 117.3C270.886 117.1 268.148 117.316 265.49 117.94C260.29 119.03 255.09 119.48 249.98 121C244.265 122.821 238.673 125.009 233.24 127.55C231.217 128.313 229.353 129.442 227.74 130.88C226.678 131.87 226.029 133.225 225.923 134.673C225.818 136.121 226.263 137.556 227.17 138.69C227.444 139.043 227.804 139.319 228.215 139.494C228.626 139.669 229.075 139.737 229.52 139.69C230.52 139.52 231.12 138.26 230.32 137.89C235.57 139.89 235.71 134.47 239.97 132.96Z" fill="#FFC1A6"/>
<path d="M223.55 133.79V133.47L223.31 134.06L223.55 133.79Z" fill="#FF6EA1"/>
<path d="M237.17 93.1801C236.866 92.6007 236.405 92.1188 235.84 91.7901C234.14 90.7901 230.58 92.3201 229.05 93.1601C228.723 93.3399 228.406 93.5369 228.1 93.7501C226.3 94.9669 224.667 96.4123 223.24 98.0501C222.75 98.5901 222.24 99.1301 221.8 99.6801C214.75 107.83 210.19 116.8 211.33 127.68C211.58 130.01 212.04 132.53 213.78 134.11C214.494 134.714 215.335 135.148 216.241 135.38C217.147 135.612 218.093 135.636 219.01 135.45C220.757 135.091 222.364 134.237 223.64 132.99L223.59 133.44L223.85 132.8C226.63 130.1 227.28 126.37 227.96 122.73L234.59 106.47C235.65 103.86 239.06 96.7301 237.17 93.1801Z" fill="#FF6EA1"/>
<path d="M225.9 173.7C228.95 168.7 223.4 167.91 222.59 163.47C222.5 162.934 222.5 162.386 222.59 161.85C223.36 157 223.7 152.22 224.08 147.29C224.34 143.99 224.74 140.7 225.29 137.44C225.65 135.24 226.51 132.81 226.61 130.52C226.56 129.79 226.48 129.06 226.36 128.35C225.887 127.453 225.239 126.66 224.454 126.017C223.669 125.375 222.763 124.896 221.79 124.61C220.427 124.206 218.986 124.14 217.592 124.419C216.198 124.698 214.893 125.313 213.79 126.21C213.237 127.062 212.742 127.951 212.31 128.87C211.793 131.263 211.595 133.715 211.72 136.16C211.9 141.48 211.42 146.71 212.06 151.99C212.894 157.896 214.137 163.736 215.78 169.47C216.196 171.577 217.021 173.581 218.21 175.37C219.112 176.577 220.432 177.404 221.911 177.69C223.39 177.977 224.922 177.702 226.21 176.92C226.618 176.703 226.965 176.387 227.218 176.001C227.471 175.614 227.623 175.17 227.66 174.71C227.62 173.75 226.44 172.95 225.9 173.7Z" fill="#FFC1A6"/>
<path d="M226.38 128.47C227.81 121.94 230.382 115.714 233.98 110.08" stroke="#485070" stroke-width="0.75" stroke-miterlimit="10"/>
<path d="M231.38 114.1L233.98 112.42" stroke="#485070" stroke-width="0.75" stroke-miterlimit="10"/>
<path d="M77.0601 239.55C80.7801 243.8 82.3001 249.55 83.5701 254.91C85.1968 261.863 86.8301 268.807 88.4701 275.74C88.9148 277.374 89.1896 279.049 89.2901 280.74C89.2067 283.68 88.7634 286.598 87.9701 289.43C87.1601 292.75 85.1701 292.55 82.2101 292.25C77.5301 291.79 71.2101 290.37 68.0101 286.56C66.5101 284.75 66.0101 282.32 65.6001 280.01C65.0001 276.83 64.4101 273.65 63.8101 270.46C61.3801 257.46 58.9501 244.05 61.7001 231.12C67.6783 231.958 73.1423 234.957 77.0601 239.55V239.55Z" fill="white"/>
<path d="M83.9305 280.67C86.0005 281.67 87.9305 282.91 89.9305 284.11C93.0905 286.01 96.3905 287.35 99.6305 289.11C100.517 289.655 101.486 290.05 102.5 290.28C104.23 290.59 106.06 289.94 107.8 290.17C110.14 290.49 112.13 292.57 112.97 295.32C114.4 299.95 111.06 298.22 108.85 297.82L103.68 296.87C96.9961 295.693 90.2415 294.958 83.4605 294.67C79.6905 294.47 73.0505 294.56 70.2305 291.12C68.8605 289.45 67.3405 282.12 69.1405 280.36C69.4732 280.063 69.8702 279.847 70.3005 279.73C73.8061 278.535 77.5991 278.476 81.1405 279.56C82.0951 279.865 83.0274 280.236 83.9305 280.67V280.67Z" fill="#9C5240"/>
<path d="M81.4799 334.23H15.3799C14.8579 334.239 14.3393 334.145 13.8544 333.951C13.3695 333.758 12.928 333.47 12.5556 333.104C12.1832 332.738 11.8875 332.302 11.6856 331.82C11.4837 331.339 11.3798 330.822 11.3799 330.3C11.3798 329.778 11.4837 329.261 11.6856 328.78C11.8875 328.298 12.1832 327.862 12.5556 327.496C12.928 327.13 13.3695 326.842 13.8544 326.649C14.3393 326.456 14.8579 326.361 15.3799 326.37H81.4799C82.5222 326.37 83.5218 326.784 84.2588 327.521C84.9958 328.258 85.4099 329.258 85.4099 330.3C85.4099 331.342 84.9958 332.342 84.2588 333.079C83.5218 333.816 82.5222 334.23 81.4799 334.23Z" fill="#485070"/>
<path d="M72.7607 282.36V259.14C72.7607 255.644 69.9267 252.81 66.4307 252.81H14.6907C11.1948 252.81 8.36072 255.644 8.36072 259.14V282.36C8.36072 285.856 11.1948 288.69 14.6907 288.69H66.4307C69.9267 288.69 72.7607 285.856 72.7607 282.36Z" fill="#485070"/>
<path d="M20.6006 282.86H16.6006V330.6H20.6006V282.86Z" fill="#485070"/>
<path d="M63.75 282.86H59.75V330.6H63.75V282.86Z" fill="#485070"/>
<path d="M48.3301 332.26H44.3301V390.25H48.3301V332.26Z" fill="#485070"/>
<path d="M18.2705 332.26H14.2705V390.25H18.2705V332.26Z" fill="#485070"/>
<path d="M82.3906 332.26H78.3906V390.25H82.3906V332.26Z" fill="#485070"/>
<path d="M61.8604 332.26H57.8604V390.25H61.8604V332.26Z" fill="#485070"/>
<path d="M122.38 352.61C120.12 353.09 118.56 353.2 115.88 353.61C111.98 354.163 108.07 354.61 104.15 354.95C105.15 362 106.15 368.2 106.34 369.44C107.34 374.84 106.8 388.37 109.21 393.51C112.14 393.87 114.68 393.39 117.43 393.16C118.9 379.6 120.1 366.02 122.38 352.61Z" fill="#CF9378"/>
<path d="M101.97 364.47C101.948 365.579 102.031 366.687 102.22 367.78C105.492 370.99 109.858 372.844 114.44 372.97C116.993 373.079 119.544 372.724 121.97 371.92C122.25 366.64 122.563 361.36 122.91 356.08C123.35 349.21 123.7 342.34 124.56 335.51C125.168 329.373 125.202 323.193 124.66 317.05C122.91 310.34 118.45 308.5 118.45 308.5C118.45 308.5 105.99 303.57 96.45 301.5C84.73 298.93 72.82 297.02 61.04 294.5C55.38 293.27 45.91 293.5 43.04 299.69C39.6 306.79 46.38 316.31 51.78 320.47C57.4 324.75 64.33 326.91 71.23 328.41C81.0045 330.543 90.998 331.507 101 331.28C100.68 331.26 101.96 362.01 101.97 364.47Z" fill="#66A3F2"/>
<path d="M100.991 331.31C98.8205 329.15 96.7605 326.86 94.5905 324.7C91.3505 321.48 88.2005 318.17 84.9805 314.93C78.5905 308.5 72.1605 302.1 65.9105 295.53C64.2705 295.19 62.6305 294.85 60.9905 294.53C55.3305 293.3 45.8605 293.53 42.9905 299.72C39.6005 306.79 46.3805 316.31 51.7805 320.47C57.4005 324.75 64.3305 326.91 71.2305 328.41C81.005 330.543 90.9985 331.507 101 331.28C100.996 331.29 100.993 331.3 100.991 331.31V331.31Z" fill="#485070"/>
<path d="M101.08 333.22C101.08 330.09 101.51 326.27 101.52 323.14" stroke="#485070" stroke-width="0.4" stroke-miterlimit="10"/>
<path d="M109.12 305.47C100.74 302.78 93.12 300.29 80.79 298.62" stroke="#485070" stroke-width="0.75" stroke-miterlimit="10"/>
<path d="M107.791 397.32H134.611V400.22H108.751C108.486 400.22 108.231 400.114 108.044 399.927C107.856 399.739 107.751 399.485 107.751 399.22V397.28L107.791 397.32Z" fill="#B3B3B3"/>
<path d="M134.241 398.1C134.336 397.967 134.42 397.827 134.491 397.68C134.742 396.931 134.745 396.121 134.5 395.37C134.255 394.619 133.775 393.967 133.131 393.51C131.792 392.576 130.279 391.923 128.681 391.59C125.379 390.58 122.011 389.801 118.601 389.26C117.691 389.14 107.921 388.26 107.971 387.8C107.821 390.27 107.661 392.73 107.511 395.19C107.331 396.151 107.331 397.138 107.511 398.1H134.241Z" fill="#485070"/>
<path d="M112.381 385.77C113.154 385.187 114.089 384.859 115.057 384.833C116.025 384.806 116.977 385.081 117.781 385.62C118.564 386.188 119.193 386.943 119.609 387.816C120.025 388.69 120.214 389.654 120.161 390.62C120.171 390.801 120.146 390.983 120.086 391.155C120.026 391.326 119.932 391.484 119.811 391.62C119.519 391.822 119.165 391.914 118.811 391.88L114.191 391.93C113.191 391.93 112.011 392.17 111.341 391.31C110.171 389.77 111.261 386.92 112.381 385.77Z" fill="#485070"/>
<path d="M122.571 389.97C122.116 389.934 121.662 390.044 121.275 390.285C120.888 390.527 120.589 390.886 120.421 391.31" stroke="#B3B3B3" stroke-width="0.75" stroke-miterlimit="10" stroke-linecap="round"/>
<path d="M123.121 392.32C123.364 391.932 123.699 391.61 124.097 391.383C124.495 391.156 124.943 391.031 125.401 391.02" stroke="#B3B3B3" stroke-width="0.75" stroke-miterlimit="10" stroke-linecap="round"/>
<path d="M126.521 392.68C126.63 392.392 126.822 392.143 127.073 391.965C127.324 391.787 127.623 391.688 127.931 391.68" stroke="#B3B3B3" stroke-width="0.75" stroke-miterlimit="10" stroke-linecap="round"/>
<path d="M77.9609 348.97C74.5209 349.45 71.0775 349.85 67.6309 350.17C70.2409 363 71.4409 376.07 73.5709 388.99C76.5009 388.99 79.1709 388.35 82.2809 388.42C82.8809 384.51 84.0709 361.29 85.9109 347.67C83.2896 348.263 80.6347 348.698 77.9609 348.97V348.97Z" fill="#CF9378"/>
<path d="M68.1404 367.23C68.8504 370.12 69.6804 371.9 72.5304 373.03C75.0064 374.023 77.6872 374.397 80.3404 374.12C82.7232 373.735 84.9525 372.696 86.7804 371.12C86.7804 371.12 90.4604 316.33 85.8904 309.31C80.2904 300.72 68.0504 298.95 58.5004 296.86C50.1504 295.02 41.6904 293.52 33.2504 291.86C31.1904 299.68 32.6804 308.86 35.6604 316.07V316.18C36.8498 318.955 38.7736 321.352 41.2248 323.114C43.6759 324.876 46.5615 325.936 49.5704 326.18C54.0397 326.56 58.5262 326.7 63.0104 326.6C63.0004 326.65 65.6004 356.88 68.1404 367.23Z" fill="#66A3F2"/>
<path d="M63.1406 328.61C63.1406 325.48 63.5706 321.66 63.5806 318.53" stroke="#485070" stroke-width="0.4" stroke-miterlimit="10"/>
<path d="M72.8711 396.9H99.6911V399.8H73.8311C73.5658 399.8 73.3115 399.695 73.1239 399.507C72.9364 399.319 72.8311 399.065 72.8311 398.8V396.86L72.8711 396.9Z" fill="#B3B3B3"/>
<path d="M99.3109 397.68C99.4126 397.55 99.4998 397.409 99.5709 397.26C99.8217 396.511 99.8249 395.701 99.58 394.95C99.3351 394.199 98.8551 393.547 98.2109 393.09C96.8723 392.156 95.3586 391.503 93.7609 391.17C90.4591 390.16 87.0909 389.382 83.6809 388.84C82.7709 388.72 73.0009 387.84 73.0409 387.38L72.5909 394.77C72.4059 395.731 72.4059 396.719 72.5909 397.68H99.3109Z" fill="#485070"/>
<path d="M77.491 385.35C78.2618 384.766 79.1956 384.438 80.1619 384.411C81.1283 384.385 82.0789 384.66 82.881 385.2C83.6663 385.766 84.2967 386.521 84.7143 387.395C85.1319 388.268 85.3233 389.233 85.271 390.2C85.2814 390.381 85.2558 390.563 85.1957 390.735C85.1357 390.906 85.0423 391.064 84.921 391.2C84.6289 391.402 84.2746 391.494 83.921 391.46H79.301C78.301 391.46 77.121 391.7 76.451 390.84C75.251 389.35 76.381 386.47 77.491 385.35Z" fill="#485070"/>
<path d="M87.6412 389.55C87.1869 389.515 86.7333 389.626 86.3466 389.867C85.9599 390.108 85.6602 390.467 85.4912 390.89" stroke="#B3B3B3" stroke-width="0.75" stroke-miterlimit="10" stroke-linecap="round"/>
<path d="M88.2012 391.9C88.4441 391.512 88.7795 391.19 89.1774 390.963C89.5753 390.736 90.0233 390.611 90.4812 390.6" stroke="#B3B3B3" stroke-width="0.75" stroke-miterlimit="10" stroke-linecap="round"/>
<path d="M91.5908 392.26C91.7029 391.972 91.8974 391.723 92.1499 391.546C92.4025 391.368 92.702 391.268 93.0108 391.26" stroke="#B3B3B3" stroke-width="0.75" stroke-miterlimit="10" stroke-linecap="round"/>
<path d="M32.1208 302.47C32.3608 303.73 32.6008 304.99 32.8308 306.25C37.1808 303.98 42.3808 304.47 47.3108 304.47C58.1189 304.442 68.7581 301.786 78.3108 296.73C77.6745 294.126 77.2861 291.467 77.1508 288.79C77.1508 286.05 76.0008 283.39 76.0008 280.65C75.8208 276.94 76.0008 273.22 76.1508 269.51C76.5008 262.51 76.9708 255.39 75.6608 248.51C74.8675 243.958 73.0632 239.642 70.3808 235.88C69.1308 234.19 67.3808 231.99 65.4808 231.02C63.5808 230.05 60.3908 230.33 58.1108 230.13C56.4512 229.912 54.7703 229.912 53.1108 230.13C51.0819 230.571 49.1525 231.384 47.4208 232.53C37.9508 238.21 36.8008 247.37 33.9508 257.23C32.5308 262.16 30.2908 266.82 28.8708 271.74C28.0845 274.495 27.727 277.356 27.8108 280.22C27.8708 282.81 28.8108 285.11 29.3408 287.66C30.2741 292.593 31.2008 297.53 32.1208 302.47Z" fill="white"/>
<path d="M58.9111 239.13C60.6867 240.631 62.9693 241.397 65.2911 241.27C66.0955 241.265 66.8796 241.017 67.5411 240.56C67.8658 240.327 68.1097 239.998 68.2388 239.62C68.3678 239.242 68.3756 238.833 68.2611 238.45" stroke="#485070" stroke-width="0.4" stroke-miterlimit="10" stroke-linecap="round"/>
<path d="M56.7305 259.79C57.7772 263.157 59.5842 266.239 62.0117 268.796C64.4392 271.354 67.4224 273.319 70.7305 274.54" stroke="#485070" stroke-width="0.4" stroke-miterlimit="10" stroke-linecap="round"/>
<path d="M62.8711 265.02C64.6212 267.087 67.0909 268.413 69.7811 268.73" stroke="#485070" stroke-width="0.4" stroke-miterlimit="10" stroke-linecap="round"/>
<path d="M50.7812 264.61C53.2376 272.332 57.5661 279.326 63.3812 284.97" stroke="#485070" stroke-width="0.4" stroke-miterlimit="10" stroke-linecap="round"/>
<path d="M72.5703 238.76C75.2903 243.44 75.3303 246.1 75.9403 250.23C76.6249 254.864 76.9393 259.546 76.8803 264.23C76.7703 272.07 75.0403 279.23 76.7903 287.01" stroke="#485070" stroke-width="0.4" stroke-miterlimit="10"/>
<path d="M66.88 228.67C67.2868 227.368 67.8545 226.121 68.57 224.96C66.4546 224.893 64.4072 224.197 62.69 222.96C61.8419 222.34 61.0519 221.643 60.33 220.88C60.06 220.61 59.66 219.88 59.25 219.44C58.81 224.15 57.06 228.58 53.04 231.27C54.506 233.7 56.6039 235.688 59.11 237.02C61.2 238.23 66.42 240.58 66.54 236.34C66.54 234.95 66.02 233.67 66.14 232.26C66.2505 231.039 66.4988 229.835 66.88 228.67Z" fill="#CF9378"/>
<path d="M66.1302 232.63C66.1302 232.51 66.1302 232.38 66.1302 232.26C66.3823 229.675 67.2128 227.18 68.5602 224.96C66.4448 224.893 64.3974 224.197 62.6802 222.96C61.832 222.34 61.0421 221.643 60.3202 220.88C60.0502 220.61 59.6502 219.88 59.2402 219.44C59.1702 220.13 59.0802 220.81 58.9502 221.44C59.1613 223.744 59.9239 225.964 61.1736 227.912C62.4233 229.859 64.1233 231.478 66.1302 232.63V232.63Z" fill="#9C5240"/>
<path d="M35.3805 239.55C31.6605 243.8 30.1305 249.55 28.8705 254.91C27.2105 261.863 25.5572 268.807 23.9105 275.74C23.3505 278.15 22.4405 281.44 22.9705 283.9C23.3015 285.26 23.8988 286.541 24.7278 287.668C25.5569 288.796 26.6012 289.748 27.8005 290.47C30.2705 291.96 34.0305 292.63 36.8005 291.37C39.5705 290.11 42.5005 288.88 44.4305 286.55C45.9305 284.74 46.4305 282.31 46.8405 280C47.4405 276.82 48.0305 273.64 48.6305 270.45C51.0605 257.45 53.4905 244.04 50.7405 231.11C44.761 231.951 39.2967 234.954 35.3805 239.55V239.55Z" fill="white"/>
<path d="M50.8205 252.47C45.4105 253.87 45.8905 260.79 45.4005 265.06C44.6813 271.369 43.4811 277.614 41.8105 283.74" stroke="#485070" stroke-width="0.4" stroke-miterlimit="10"/>
<path d="M46.7607 256.01C47.3645 254.12 48.5039 252.445 50.0407 251.19" stroke="#485070" stroke-width="0.4" stroke-miterlimit="10"/>
<path d="M43.5599 281.92C46.4599 282.56 49.3099 283.48 52.1499 284.35C56.6699 285.71 61.2499 286.5 65.8399 287.72C67.1381 288.122 68.4823 288.357 69.8399 288.42C72.1599 288.42 74.4099 287.5 76.7299 287.42C78.2821 287.426 79.8087 287.817 81.1732 288.556C82.5378 289.296 83.6979 290.362 84.5499 291.66C87.3899 296 82.6799 294.84 79.7199 294.8L72.7899 294.7C63.7099 294.57 55.1199 295.03 46.0099 295.79C41.0099 296.21 32.4299 297.37 28.0099 294.43C25.8699 293.01 22.3399 286.06 24.3099 283.98C24.7059 283.621 25.1725 283.348 25.6799 283.18C30.1427 281.414 34.967 280.755 39.7399 281.26C41.0238 281.414 42.2988 281.634 43.5599 281.92V281.92Z" fill="#CF9378"/>
<path d="M119.68 304.58H59.67C59.0017 304.58 58.46 305.122 58.46 305.79V306.21C58.46 306.878 59.0017 307.42 59.67 307.42H119.68C120.348 307.42 120.89 306.878 120.89 306.21V305.79C120.89 305.122 120.348 304.58 119.68 304.58Z" fill="#485070"/>
<path d="M127.2 307.41H73.8496L78.4896 276.76C78.5612 276.249 78.8133 275.781 79.2004 275.439C79.5874 275.098 80.0837 274.907 80.5996 274.9H129.72C130.018 274.907 130.312 274.979 130.58 275.109C130.848 275.24 131.086 275.427 131.275 275.658C131.465 275.888 131.603 276.157 131.68 276.445C131.756 276.734 131.77 277.036 131.72 277.33L127.2 307.41Z" fill="#757E96"/>
<path d="M104.93 294.07C106.885 294.07 108.47 292.485 108.47 290.53C108.47 288.575 106.885 286.99 104.93 286.99C102.975 286.99 101.39 288.575 101.39 290.53C101.39 292.485 102.975 294.07 104.93 294.07Z" fill="white"/>
<path d="M77.4508 209.15C76.8408 206.77 74.2908 208.85 71.9608 208.05C69.9608 207.35 68.4008 206.73 66.2408 207.11C64.2783 207.407 62.4962 208.423 61.2408 209.96C60.9187 210.367 60.6182 210.791 60.3408 211.23C59.6049 212.733 59.0058 214.299 58.5508 215.91V216.02C58.6557 219.031 59.6587 221.943 61.4308 224.38C62.2207 225.541 63.3067 226.469 64.5762 227.069C65.8457 227.668 67.2526 227.917 68.6508 227.79C70.2482 227.602 71.7247 226.846 72.8108 225.66C73.9964 224.329 74.9315 222.794 75.5708 221.13C76.6408 218.64 78.1208 211.77 77.4508 209.15Z" fill="#CF9378"/>
<path d="M66.2005 211.47C66.2005 211.363 66.2205 211.243 66.2605 211.11L66.8905 208.11C69.4005 209.99 72.1205 212.66 75.3705 213.74C76.5851 214.124 77.8884 214.125 79.1033 213.742C80.3182 213.359 81.3857 212.611 82.1605 211.6C82.4281 211.228 82.6623 210.833 82.8605 210.42C82.9855 210.061 83.1325 209.711 83.3005 209.37C82.8305 209.612 82.2905 209.683 81.7738 209.57C81.2571 209.457 80.7961 209.167 80.4705 208.75C79.844 207.9 79.3671 206.95 79.0605 205.94C78.1284 203.626 76.553 201.627 74.5205 200.18C72.4841 198.746 69.9982 198.096 67.5205 198.35C65.9641 198.536 64.4843 199.129 63.2305 200.07C62.6053 200.529 62.0553 201.082 61.6005 201.71C61.3905 202 60.5005 203.59 60.8605 203.9C60.57 203.694 60.2253 203.579 59.8696 203.568C59.5138 203.558 59.1629 203.652 58.8605 203.84C58.2338 204.245 57.7237 204.807 57.3805 205.47C55.8349 208.199 55.2636 211.373 55.7605 214.47C56.0129 215.782 56.4156 217.06 56.9605 218.28C57.3705 219.28 58.0405 220.46 59.2905 220.49C61.0305 220.49 60.8305 217.62 61.2905 216.12C61.4805 215.53 61.4405 214.8 62.1405 214.62C62.8405 214.44 64.0005 215.79 64.5505 214.69C64.6909 214.265 64.6909 213.805 64.5505 213.38C64.41 212.952 64.4386 212.487 64.6305 212.08C64.6305 212.08 65.5505 212.08 65.6905 212.08C65.8335 212.054 65.963 211.979 66.0562 211.867C66.1494 211.756 66.2005 211.615 66.2005 211.47V211.47Z" fill="#485070"/>
<path d="M61.9208 199.47C61.2504 200.382 60.8318 201.455 60.7072 202.58C60.5825 203.705 60.7563 204.843 61.2108 205.88" stroke="#485070" stroke-width="0.75" stroke-miterlimit="10" stroke-linecap="round"/>
<path d="M57.1406 203.33C57.702 203 58.3604 202.874 59.0038 202.975C59.6473 203.075 60.2362 203.395 60.6706 203.88" stroke="#485070" stroke-width="0.75" stroke-miterlimit="10" stroke-linecap="round"/>
<path d="M70.9206 218.05C71.3514 218.05 71.7006 217.701 71.7006 217.27C71.7006 216.839 71.3514 216.49 70.9206 216.49C70.4898 216.49 70.1406 216.839 70.1406 217.27C70.1406 217.701 70.4898 218.05 70.9206 218.05Z" fill="#485070"/>
<path d="M70.3105 215.16C70.8248 215.001 71.3775 215.018 71.8805 215.21" stroke="#485070" stroke-width="0.75" stroke-miterlimit="10" stroke-linecap="round"/>
<path d="M76.6205 218.06C76.6205 218.214 76.5748 218.365 76.4891 218.493C76.4034 218.622 76.2816 218.722 76.139 218.781C75.9965 218.84 75.8397 218.855 75.6884 218.825C75.5371 218.795 75.3981 218.721 75.289 218.612C75.1799 218.502 75.1056 218.363 75.0755 218.212C75.0454 218.061 75.0609 217.904 75.1199 217.762C75.179 217.619 75.2789 217.497 75.4072 217.411C75.5355 217.326 75.6863 217.28 75.8405 217.28C76.0474 217.28 76.2458 217.362 76.3921 217.508C76.5384 217.655 76.6205 217.853 76.6205 218.06V218.06Z" fill="#485070"/>
<path d="M75.2402 215.96C75.7512 215.802 76.3005 215.819 76.8002 216.01" stroke="#485070" stroke-width="0.75" stroke-miterlimit="10" stroke-linecap="round"/>
<path d="M73.8204 218.47C73.7354 219.161 73.9178 219.859 74.3303 220.42C74.4609 220.544 74.5426 220.711 74.5603 220.89C74.5446 220.984 74.501 221.072 74.4351 221.142C74.3691 221.211 74.2839 221.259 74.1903 221.28C73.9996 221.325 73.8011 221.325 73.6104 221.28" stroke="#485070" stroke-width="0.75" stroke-miterlimit="10" stroke-linecap="round"/>
<path d="M70.3105 222.71C70.6775 223.024 71.1119 223.25 71.5801 223.37C72.0483 223.489 72.5377 223.5 73.0105 223.4" stroke="#485070" stroke-width="0.75" stroke-miterlimit="10" stroke-linecap="round"/>
<path d="M58.3799 215.85C58.3779 216.416 58.544 216.97 58.857 217.442C59.1701 217.913 59.6161 218.281 60.1385 218.499C60.6609 218.717 61.2363 218.775 61.7917 218.666C62.3471 218.557 62.8577 218.285 63.2587 217.886C63.6596 217.486 63.933 216.977 64.0442 216.422C64.1554 215.867 64.0993 215.291 63.8831 214.768C63.667 214.245 63.3004 213.797 62.8299 213.483C62.3593 213.168 61.806 213 61.2399 213C60.4831 213 59.7572 213.3 59.2211 213.834C58.685 214.368 58.3825 215.093 58.3799 215.85V215.85Z" fill="#CF9378"/>
<path d="M60.6599 214.63C60.8669 214.607 61.0763 214.635 61.2699 214.711C61.4634 214.788 61.6352 214.911 61.7699 215.07C61.8978 215.235 61.9837 215.429 62.0203 215.634C62.0569 215.84 62.043 216.051 61.9799 216.25C61.8539 216.139 61.6978 216.068 61.5313 216.046C61.3649 216.023 61.1956 216.051 61.0447 216.125C60.8939 216.198 60.7683 216.315 60.6838 216.46C60.5993 216.606 60.5597 216.772 60.5699 216.94" stroke="#485070" stroke-width="0.75" stroke-linecap="round" stroke-linejoin="round"/>
<path d="M378.469 379.34C378.389 378.98 368.179 380.77 367.049 380.94L366.919 381.05C363.389 384.05 358.919 385.68 354.529 387.27C353.832 387.459 353.195 387.824 352.679 388.33C350.679 390.66 354.909 391.67 356.409 391.79C358.85 391.87 361.291 391.631 363.669 391.08C368.589 390.22 373.599 390.5 378.469 389.3C378.669 389.272 378.852 389.177 378.989 389.03C379.071 388.894 379.113 388.738 379.109 388.58C379.376 385.485 379.16 382.368 378.469 379.34V379.34Z" fill="#485070"/>
<path d="M356.109 307.53C358.579 332.11 363.109 357.34 365.889 381.89C371.649 382.39 373.739 382.01 379.329 381.06C382.999 354.35 384.549 341.46 381.239 314.36C380.899 311.58 381.239 288.55 381.099 285.59C380.509 267.98 382.859 247.87 372.289 233C369.609 229.24 365.239 226.36 360.789 226.71C359.257 226.859 357.777 227.347 356.456 228.137C355.135 228.927 354.006 230.001 353.149 231.28C347.689 238.69 350.739 258.84 351.709 267.64C352.999 279.31 354.939 295.82 356.109 307.53Z" fill="#757E96"/>
<path d="M357.849 322.82C358.849 318.56 360.069 314.35 361.269 310.14C365.469 295.41 367.209 280.28 369.319 265.14C369.909 261.566 370.22 257.952 370.249 254.33C370.189 250.65 369.699 246.96 369.409 243.33C369.128 238.308 368.449 233.315 367.379 228.4C365.423 227.173 363.135 226.583 360.829 226.71C359.297 226.86 357.817 227.347 356.496 228.137C355.175 228.927 354.046 230.001 353.189 231.28C347.729 238.69 350.779 258.84 351.749 267.64C353.039 279.31 354.979 295.82 356.149 307.53C356.619 312.55 357.209 317.66 357.849 322.82Z" fill="#545D78"/>
<path d="M339.089 382.75H338.789C335.514 383.148 332.201 383.132 328.929 382.7C328.512 382.63 328.086 382.63 327.669 382.7C327.312 382.81 326.975 382.975 326.669 383.19C323.595 385.056 320.206 386.347 316.669 387C314.669 387.38 312.469 387.59 310.859 388.87C310.109 389.48 309.519 390.59 310.089 391.37C310.305 391.618 310.576 391.813 310.879 391.94C313.949 393.38 318.589 392.82 321.879 392.63C327.209 392.34 332.489 392.63 337.749 391.63C337.965 391.605 338.172 391.526 338.349 391.4C338.567 391.177 338.708 390.889 338.749 390.58C339.093 389.122 339.357 387.647 339.539 386.16C339.609 385.58 339.939 383.47 339.539 382.97C339.485 382.902 339.417 382.847 339.339 382.809C339.261 382.771 339.176 382.751 339.089 382.75V382.75Z" fill="#485070"/>
<path d="M352.129 230.08C340.009 229.89 336.299 242.54 334.859 252.27C331.806 272.817 329.669 293.483 328.449 314.27C327.839 324.59 327.029 333.27 326.689 343.63C326.329 354.24 325.749 372.63 326.209 383.14C326.2 383.353 326.26 383.563 326.379 383.74C326.561 383.901 326.796 383.99 327.039 383.99C331.484 384.458 335.963 384.522 340.419 384.18C340.631 384.181 340.839 384.122 341.019 384.01C341.209 383.88 339.499 383.2 339.569 383.01C342.979 372.48 345.319 353.65 346.389 342.65C348.619 319.65 353.389 297.25 361.979 276C370.559 255.87 375.379 230.47 352.129 230.08Z" fill="#757E96"/>
<path d="M357.1 288.41C361.966 276.796 366.143 264.906 369.61 252.8" stroke="#485070" stroke-width="0.75" stroke-miterlimit="10"/>
<path d="M354.509 257.34H354.629C355.742 257.52 356.852 257.68 357.959 257.82C358.779 257.92 359.599 258.01 360.419 258.08L361.229 258.16L363.229 258.3H364.399H365.309C370.543 258.469 375.78 258.101 380.939 257.2C380.169 247.91 378.139 238.96 372.739 231.37C370.069 227.62 365.689 224.73 361.239 225.08C359.708 225.23 358.23 225.717 356.91 226.507C355.591 227.298 354.463 228.371 353.609 229.65C353.187 230.234 352.829 230.861 352.539 231.52C342.009 231.28 337.359 241.89 335.009 250.84C337.399 252.244 339.929 253.394 342.559 254.27C346.445 255.641 350.443 256.668 354.509 257.34V257.34Z" fill="#545D78"/>
<path d="M359.79 164.02C359.865 162.66 359.767 161.296 359.5 159.96C361.507 160.636 363.67 160.695 365.71 160.13C366.722 159.846 367.706 159.471 368.65 159.01C368.99 158.85 369.65 158.35 370.16 158.01C368.93 162.57 369.02 167.34 371.85 171.26C369.631 173.028 366.973 174.158 364.16 174.53C361.77 174.94 356.06 175.31 357.43 171.3C357.88 169.98 358.85 168.97 359.23 167.61C359.544 166.437 359.732 165.233 359.79 164.02V164.02Z" fill="#F7B699"/>
<path d="M365.32 160.22C363.394 160.68 361.378 160.59 359.5 159.96C359.768 161.296 359.865 162.66 359.79 164.02C359.734 165.243 359.546 166.457 359.23 167.64L359.11 168C359.34 168 359.58 167.93 359.81 167.88C362.468 166.031 364.412 163.327 365.32 160.22V160.22Z" fill="#C46E58"/>
<path d="M356.7 142.04C358.1 140.04 359.77 142.86 362.22 142.92C364.36 142.98 366.02 142.92 367.91 144.04C369.641 145.004 370.952 146.575 371.59 148.45C371.746 148.943 371.876 149.444 371.98 149.95C372.129 151.613 372.129 153.287 371.98 154.95V155.05C370.831 157.834 368.878 160.212 366.37 161.88C365.218 162.696 363.869 163.189 362.463 163.309C361.056 163.428 359.643 163.17 358.37 162.56C356.944 161.82 355.828 160.597 355.22 159.11C354.577 157.447 354.238 155.683 354.22 153.9C354.14 151.22 355.15 144.27 356.7 142.04Z" fill="#F7B699"/>
<path d="M359.47 146.73C357.55 147 355.98 147.31 354.22 146.28C352.875 145.486 351.873 144.221 351.41 142.73C351.29 142.288 351.21 141.836 351.17 141.38C351.17 141.17 351.17 140.38 351.17 140.24C351.524 140.631 352.003 140.887 352.526 140.962C353.048 141.037 353.58 140.926 354.03 140.65C354.915 140.072 355.696 139.349 356.34 138.51C358.017 136.662 360.19 135.336 362.6 134.69C365.021 134.063 367.586 134.325 369.83 135.43C371.221 136.151 372.4 137.223 373.25 138.54C373.686 139.19 374.023 139.901 374.25 140.65C374.34 141 374.61 142.8 374.17 142.96C374.521 142.863 374.892 142.874 375.237 142.992C375.581 143.11 375.882 143.329 376.1 143.62C376.52 144.211 376.781 144.899 376.86 145.62C377.218 148.05 376.91 150.531 375.97 152.8C375.245 154.507 374.434 156.176 373.54 157.8C372.786 159.189 371.638 160.323 370.24 161.06C368.39 161.779 366.388 162.02 364.42 161.76C363.577 161.807 362.739 161.592 362.023 161.145C361.307 160.697 360.747 160.039 360.42 159.26C360.115 158.422 359.946 157.541 359.92 156.65C359.92 156.28 359.72 153.71 360.02 153.55C359.662 153.767 359.264 153.91 358.85 153.97C358.64 153.996 358.428 153.961 358.238 153.869C358.048 153.776 357.889 153.631 357.78 153.45C357.657 153.073 357.675 152.665 357.83 152.3L359.47 146.73Z" fill="#485070"/>
<path d="M374.64 138.36C374.947 139.45 374.963 140.602 374.686 141.701C374.409 142.8 373.848 143.806 373.06 144.62" stroke="#485070" stroke-width="0.75" stroke-miterlimit="10" stroke-linecap="round"/>
<path d="M377.76 143.67C377.346 143.169 376.772 142.825 376.135 142.696C375.498 142.567 374.836 142.66 374.26 142.96" stroke="#485070" stroke-width="0.75" stroke-miterlimit="10" stroke-linecap="round"/>
<path d="M364.01 154.99C363.812 155.52 363.462 155.979 363.003 156.31C362.544 156.641 361.997 156.828 361.432 156.848C360.867 156.868 360.308 156.72 359.827 156.423C359.346 156.125 358.964 155.692 358.729 155.177C358.494 154.663 358.417 154.09 358.508 153.532C358.598 152.974 358.852 152.455 359.238 152.041C359.623 151.627 360.123 151.336 360.673 151.206C361.223 151.076 361.8 151.112 362.33 151.31C362.682 151.441 363.005 151.641 363.28 151.897C363.555 152.153 363.776 152.46 363.932 152.802C364.088 153.144 364.176 153.513 364.189 153.888C364.202 154.264 364.141 154.638 364.01 154.99V154.99Z" fill="#F7B699"/>
<path d="M362.28 153.04C362.097 152.936 361.891 152.882 361.68 152.882C361.47 152.882 361.264 152.936 361.08 153.04C360.906 153.145 360.76 153.29 360.656 153.465C360.551 153.639 360.491 153.837 360.48 154.04C360.636 153.979 360.806 153.966 360.969 154.003C361.132 154.039 361.281 154.124 361.396 154.245C361.51 154.366 361.587 154.519 361.614 154.684C361.642 154.848 361.62 155.018 361.55 155.17" stroke="#485070" stroke-width="0.75" stroke-linecap="round" stroke-linejoin="round"/>
<path d="M324.32 187.4C324.405 186.949 324.605 186.528 324.902 186.178C325.198 185.827 325.579 185.559 326.01 185.4C326.89 185.1 328.38 185.1 328.68 184.21C328.82 183.77 328.97 183.6 328.61 183.3C328.24 183.013 327.788 182.852 327.32 182.84C326.597 182.808 325.88 182.978 325.25 183.331C324.619 183.684 324.099 184.207 323.75 184.84C323.54 185.23 323.24 185.74 322.82 185.62C322.723 185.577 322.636 185.515 322.563 185.438C322.491 185.361 322.435 185.269 322.4 185.17C321.9 184.01 322.59 182.7 323.26 181.62C323.729 180.721 324.417 179.954 325.26 179.39C326.288 178.932 327.427 178.779 328.54 178.95C330.79 179.11 333.16 179.28 335.07 180.62C335.57 180.97 336.07 181.38 336.52 181.74C337.847 182.579 339.289 183.222 340.8 183.65C340.34 185.26 339.87 186.87 339.41 188.49C339.388 188.574 339.343 188.651 339.28 188.71C339.192 188.74 339.097 188.74 339.01 188.71C336.27 188.04 333.11 187.48 330.36 187.05C328.34 186.868 326.305 186.986 324.32 187.4Z" fill="#F7B699"/>
<path d="M339.38 180.07C336.854 183.262 335.534 187.241 335.65 191.31L340.93 193.42C341.54 190.63 342.14 187.84 342.75 185.05C342.93 184.21 343.68 182.43 343.2 181.74C342.72 181.05 340.24 180.47 339.38 180.07Z" fill="white"/>
<path d="M357.54 186.68C356.081 185.783 354.565 184.984 353 184.29C350.28 183.07 347.43 182.07 344.7 181.13C343.659 180.727 342.594 180.393 341.51 180.13C338.51 183.3 337.51 188.67 337.86 193.13C340.99 195.87 345.57 197.5 349.02 199.65C350.912 200.938 352.921 202.046 355.02 202.96C357.127 203.878 359.477 204.078 361.71 203.53C362.291 203.399 362.838 203.148 363.316 202.791C363.793 202.434 364.19 201.981 364.48 201.46C364.754 200.768 364.87 200.023 364.82 199.28C364.715 196.748 363.998 194.279 362.73 192.084C361.462 189.89 359.681 188.035 357.54 186.68Z" fill="#545D78"/>
<path d="M305.979 204.27C305.385 203.226 305.025 202.066 304.925 200.869C304.825 199.672 304.987 198.468 305.399 197.34C305.523 196.914 305.74 196.521 306.034 196.189C306.328 195.857 306.691 195.594 307.099 195.42C307.622 195.31 308.166 195.36 308.66 195.563C309.154 195.766 309.575 196.114 309.869 196.56C310.437 197.46 310.89 198.428 311.219 199.44C311.658 200.511 312.237 201.52 312.939 202.44C313.772 203.284 314.395 204.312 314.759 205.44C314.838 205.91 314.804 206.391 314.659 206.845C314.515 207.299 314.265 207.712 313.929 208.05C311.379 210.54 307.199 206.47 305.979 204.27Z" fill="#F7B699"/>
<path d="M334.27 202.75L319.1 210.11L299.02 191.89L314.2 184.53L334.27 202.75Z" fill="#F4AE2D"/>
<path d="M331.789 201.99L318.759 208.31L301.409 192.57L314.449 186.25L331.789 201.99Z" fill="white"/>
<path d="M316.429 189.58L305.599 194.83L304.539 193.87L315.369 188.62L316.429 189.58Z" fill="#C8DDF7"/>
<path d="M321.959 194.6L311.129 199.85L310.069 198.89L320.899 193.64L321.959 194.6Z" fill="#C8DDF7"/>
<path d="M323.789 196.27L312.959 201.52L311.909 200.56L322.739 195.31L323.789 196.27Z" fill="#C8DDF7"/>
<path d="M325.629 197.93L314.799 203.18L313.739 202.22L324.569 196.97L325.629 197.93Z" fill="#C8DDF7"/>
<path d="M327.459 199.59L316.629 204.84L315.569 203.89L326.399 198.64L327.459 199.59Z" fill="#C8DDF7"/>
<path d="M329.289 201.26L318.459 206.51L317.399 205.55L328.239 200.3L329.289 201.26Z" fill="#C8DDF7"/>
<path d="M313.799 187.73L304.689 192.15L300.819 188.63L309.929 184.22L313.799 187.73Z" fill="#485070"/>
<path d="M307.55 202.6C307.398 202.779 307.261 202.97 307.14 203.17C305.99 205.01 308.21 206.72 309.63 207.72C312.83 209.97 316.75 211.06 320.48 212.14C322.58 212.75 328.66 211.25 326.98 207.95C325.83 205.7 322.44 204.4 320.21 203.8C317.89 203.37 315.91 202.4 315.04 200.05C314.66 199.05 314.5 197.89 314.16 196.83C314.097 196.562 313.962 196.317 313.77 196.12C313.672 196.024 313.544 195.964 313.408 195.95C313.272 195.935 313.135 195.967 313.02 196.04C312.906 196.144 312.825 196.28 312.79 196.43C312.14 198.24 313.3 199.58 311.07 200.65C310.33 201 309.52 201.2 308.8 201.59C308.328 201.852 307.905 202.194 307.55 202.6Z" fill="#F7B699"/>
<path d="M318.73 200.64C316.562 204.083 315.677 208.179 316.23 212.21L321.71 213.74L322.61 205.23C322.7 204.38 323.25 202.52 322.71 201.89C322.17 201.26 319.62 200.91 318.73 200.64Z" fill="white"/>
<path d="M356.27 167.6C357.448 166.75 358.868 166.302 360.32 166.32L371.44 165.32C372.14 167.8 372.843 170.28 373.55 172.76C373.55 172.66 361.55 173.13 360.38 173.1C359.21 173.07 355.27 173.45 354.77 172.32C354.27 171.19 355.38 168.47 356.27 167.6Z" fill="white"/>
<path d="M380.639 229.41C380.639 225.46 380.869 221.52 381.119 217.58C381.449 212.45 381.839 207.32 381.899 202.17C382.062 195.774 381.637 189.377 380.629 183.06C380.359 181.49 380.029 179.94 379.629 178.42C379.549 178.1 379.469 177.77 379.379 177.42C378.189 174.59 375.949 170.83 372.959 169.16C372.463 169.13 371.965 169.13 371.469 169.16C368.029 169.386 364.609 169.766 361.209 170.3C358.869 170.66 357.209 170.96 355.489 172.75C351.099 177.32 346.979 187.56 345.829 193.86C344.739 199.86 345.169 200.22 344.539 206.28C343.799 213.5 342.749 220.68 341.389 227.82C340.239 233.82 338.529 240.36 333.539 243.91C341.819 247.38 350.199 250.91 359.069 252.27C367.939 253.63 377.489 252.73 385.069 247.86C381.479 242.4 380.619 235.96 380.639 229.41Z" fill="#757E96"/>
<path d="M360.16 188.74C359.854 188.059 359.379 187.467 358.78 187.02C358.094 186.61 357.296 186.425 356.5 186.49C353.03 186.65 350.28 189.49 348.43 192.42C346.58 195.35 345.14 198.68 342.5 200.93C337.89 204.87 326.78 201.66 321.62 200.51C317.69 204.35 317.27 208.8 319.31 213.98C326.23 216.98 340.79 224.23 348.31 220.64C350.883 219.277 353.031 217.232 354.52 214.73C355.444 213.296 356.286 211.81 357.04 210.28C358.886 206.982 360.288 203.455 361.21 199.79C362.139 196.095 361.768 192.194 360.16 188.74V188.74Z" fill="#757E96"/>
<path d="M363.24 176.25C362.07 175.096 360.546 174.37 358.913 174.189C357.28 174.007 355.634 174.381 354.24 175.25C352.61 176.25 351.78 178.38 350.94 180.05C349.895 182.121 349.006 184.267 348.28 186.47C347.54 188.72 346.97 191.02 346.28 193.29C345.14 197 343.66 200.62 342.81 204.41C341.96 208.2 341.81 212.27 343.19 215.88C345.19 221.04 352.02 218.3 355.05 215.43C357.65 212.96 358.9 209.43 360.05 206.02C361.2 202.61 362.39 199.19 363.55 195.77C364.778 192.424 365.558 188.93 365.87 185.38C366.07 181.93 365.47 178.62 363.24 176.25Z" fill="#757E96"/>
<path d="M344.84 197.68C346.465 190.1 349.298 182.831 353.23 176.15" stroke="#485070" stroke-width="0.75" stroke-miterlimit="10"/>
<path d="M365.58 191.21L361.11 203.21C360.04 206.09 359.03 209.77 357 212.14C354.97 214.51 353.09 217.14 350.61 219.04C348.252 221.049 345.214 222.079 342.12 221.92" stroke="#485070" stroke-width="0.75" stroke-miterlimit="10"/>
<path d="M367.21 192.27C365.858 193.042 364.747 194.174 364 195.54" stroke="#485070" stroke-width="0.75" stroke-miterlimit="10"/>
<path d="M320.489 190.52L318.699 191.52L319.609 189.7L330.379 178.47C330.435 178.412 330.502 178.367 330.576 178.336C330.65 178.304 330.729 178.288 330.809 178.288C330.889 178.288 330.969 178.304 331.043 178.336C331.116 178.367 331.183 178.412 331.239 178.47V178.47C331.351 178.587 331.413 178.743 331.413 178.905C331.413 179.067 331.351 179.223 331.239 179.34L320.489 190.52Z" fill="#485070"/>
</svg>
